<svg width="308" height="352" viewBox="0 0 308 352" fill="none" xmlns="http://www.w3.org/2000/svg">
<g filter="url(#filter0_d_2_470)">
<path d="M12 34C12 20.7452 22.7452 10 36 10H272C285.255 10 296 20.7452 296 34V314C296 327.255 285.255 338 272 338H36C22.7452 338 12 327.255 12 314V34Z" fill="white"/>
<path d="M12.5 34C12.5 21.0213 23.0213 10.5 36 10.5H272C284.979 10.5 295.5 21.0213 295.5 34V314C295.5 326.979 284.979 337.5 272 337.5H36C23.0213 337.5 12.5 326.979 12.5 314V34Z" stroke="#EFF0F7"/>
</g>
<path d="M50.86 275.14C49.5533 275.14 48.3533 274.833 47.26 274.22C46.1667 273.607 45.3 272.76 44.66 271.68C44.02 270.587 43.7 269.353 43.7 267.98C43.7 266.62 44.02 265.4 44.66 264.32C45.3 263.227 46.1667 262.373 47.26 261.76C48.3533 261.147 49.5533 260.84 50.86 260.84C52.18 260.84 53.38 261.147 54.46 261.76C55.5533 262.373 56.4133 263.227 57.04 264.32C57.68 265.4 58 266.62 58 267.98C58 269.353 57.68 270.587 57.04 271.68C56.4133 272.76 55.5533 273.607 54.46 274.22C53.3667 274.833 52.1667 275.14 50.86 275.14ZM50.86 272.64C51.7 272.64 52.44 272.453 53.08 272.08C53.72 271.693 54.22 271.147 54.58 270.44C54.94 269.733 55.12 268.913 55.12 267.98C55.12 267.047 54.94 266.233 54.58 265.54C54.22 264.833 53.72 264.293 53.08 263.92C52.44 263.547 51.7 263.36 50.86 263.36C50.02 263.36 49.2733 263.547 48.62 263.92C47.98 264.293 47.48 264.833 47.12 265.54C46.76 266.233 46.58 267.047 46.58 267.98C46.58 268.913 46.76 269.733 47.12 270.44C47.48 271.147 47.98 271.693 48.62 272.08C49.2733 272.453 50.02 272.64 50.86 272.64ZM62.8831 260.2V275H60.0831V260.2H62.8831ZM67.0695 262.6C66.5762 262.6 66.1629 262.447 65.8295 262.14C65.5095 261.82 65.3495 261.427 65.3495 260.96C65.3495 260.493 65.5095 260.107 65.8295 259.8C66.1629 259.48 66.5762 259.32 67.0695 259.32C67.5629 259.32 67.9695 259.48 68.2895 259.8C68.6229 260.107 68.7895 260.493 68.7895 260.96C68.7895 261.427 68.6229 261.82 68.2895 262.14C67.9695 262.447 67.5629 262.6 67.0695 262.6ZM68.4495 263.92V275H65.6495V263.92H68.4495ZM75.8359 272.42L78.6359 263.92H81.6159L77.5159 275H74.1159L70.0359 263.92H73.0359L75.8359 272.42ZM93.4886 269.22C93.4886 269.62 93.4619 269.98 93.4086 270.3H85.3086C85.3753 271.1 85.6553 271.727 86.1486 272.18C86.6419 272.633 87.2486 272.86 87.9686 272.86C89.0086 272.86 89.7486 272.413 90.1886 271.52H93.2086C92.8886 272.587 92.2753 273.467 91.3686 274.16C90.4619 274.84 89.3486 275.18 88.0286 275.18C86.9619 275.18 86.0019 274.947 85.1486 274.48C84.3086 274 83.6486 273.327 83.1686 272.46C82.7019 271.593 82.4686 270.593 82.4686 269.46C82.4686 268.313 82.7019 267.307 83.1686 266.44C83.6353 265.573 84.2886 264.907 85.1286 264.44C85.9686 263.973 86.9353 263.74 88.0286 263.74C89.0819 263.74 90.0219 263.967 90.8486 264.42C91.6886 264.873 92.3353 265.52 92.7886 266.36C93.2553 267.187 93.4886 268.14 93.4886 269.22ZM90.5886 268.42C90.5753 267.7 90.3153 267.127 89.8086 266.7C89.3019 266.26 88.6819 266.04 87.9486 266.04C87.2553 266.04 86.6686 266.253 86.1886 266.68C85.7219 267.093 85.4353 267.673 85.3286 268.42H90.5886ZM110.018 265.24C109.698 264.653 109.258 264.207 108.698 263.9C108.138 263.593 107.485 263.44 106.738 263.44C105.911 263.44 105.178 263.627 104.538 264C103.898 264.373 103.398 264.907 103.038 265.6C102.678 266.293 102.498 267.093 102.498 268C102.498 268.933 102.678 269.747 103.038 270.44C103.411 271.133 103.925 271.667 104.578 272.04C105.231 272.413 105.991 272.6 106.858 272.6C107.925 272.6 108.798 272.32 109.478 271.76C110.158 271.187 110.605 270.393 110.818 269.38H106.018V267.24H113.578V269.68C113.391 270.653 112.991 271.553 112.378 272.38C111.765 273.207 110.971 273.873 109.998 274.38C109.038 274.873 107.958 275.12 106.758 275.12C105.411 275.12 104.191 274.82 103.098 274.22C102.018 273.607 101.165 272.76 100.538 271.68C99.9246 270.6 99.618 269.373 99.618 268C99.618 266.627 99.9246 265.4 100.538 264.32C101.165 263.227 102.018 262.38 103.098 261.78C104.191 261.167 105.405 260.86 106.738 260.86C108.311 260.86 109.678 261.247 110.838 262.02C111.998 262.78 112.798 263.853 113.238 265.24H110.018ZM118.45 265.64C118.81 265.053 119.276 264.593 119.85 264.26C120.436 263.927 121.103 263.76 121.85 263.76V266.7H121.11C120.23 266.7 119.563 266.907 119.11 267.32C118.67 267.733 118.45 268.453 118.45 269.48V275H115.65V263.92H118.45V265.64ZM134.035 269.22C134.035 269.62 134.009 269.98 133.955 270.3H125.855C125.922 271.1 126.202 271.727 126.695 272.18C127.189 272.633 127.795 272.86 128.515 272.86C129.555 272.86 130.295 272.413 130.735 271.52H133.755C133.435 272.587 132.822 273.467 131.915 274.16C131.009 274.84 129.895 275.18 128.575 275.18C127.509 275.18 126.549 274.947 125.695 274.48C124.855 274 124.195 273.327 123.715 272.46C123.249 271.593 123.015 270.593 123.015 269.46C123.015 268.313 123.249 267.307 123.715 266.44C124.182 265.573 124.835 264.907 125.675 264.44C126.515 263.973 127.482 263.74 128.575 263.74C129.629 263.74 130.569 263.967 131.395 264.42C132.235 264.873 132.882 265.52 133.335 266.36C133.802 267.187 134.035 268.14 134.035 269.22ZM131.135 268.42C131.122 267.7 130.862 267.127 130.355 266.7C129.849 266.26 129.229 266.04 128.495 266.04C127.802 266.04 127.215 266.253 126.735 266.68C126.269 267.093 125.982 267.673 125.875 268.42H131.135ZM146.379 269.22C146.379 269.62 146.353 269.98 146.299 270.3H138.199C138.266 271.1 138.546 271.727 139.039 272.18C139.533 272.633 140.139 272.86 140.859 272.86C141.899 272.86 142.639 272.413 143.079 271.52H146.099C145.779 272.587 145.166 273.467 144.259 274.16C143.353 274.84 142.239 275.18 140.919 275.18C139.853 275.18 138.893 274.947 138.039 274.48C137.199 274 136.539 273.327 136.059 272.46C135.593 271.593 135.359 270.593 135.359 269.46C135.359 268.313 135.593 267.307 136.059 266.44C136.526 265.573 137.179 264.907 138.019 264.44C138.859 263.973 139.826 263.74 140.919 263.74C141.973 263.74 142.913 263.967 143.739 264.42C144.579 264.873 145.226 265.52 145.679 266.36C146.146 267.187 146.379 268.14 146.379 269.22ZM143.479 268.42C143.466 267.7 143.206 267.127 142.699 266.7C142.193 266.26 141.573 266.04 140.839 266.04C140.146 266.04 139.559 266.253 139.079 266.68C138.613 267.093 138.326 267.673 138.219 268.42H143.479ZM154.563 263.76C155.883 263.76 156.95 264.18 157.763 265.02C158.576 265.847 158.983 267.007 158.983 268.5V275H156.183V268.88C156.183 268 155.963 267.327 155.523 266.86C155.083 266.38 154.483 266.14 153.723 266.14C152.95 266.14 152.336 266.38 151.883 266.86C151.443 267.327 151.223 268 151.223 268.88V275H148.423V263.92H151.223V265.3C151.596 264.82 152.07 264.447 152.643 264.18C153.23 263.9 153.87 263.76 154.563 263.76Z" fill="#211F54"/>
<path d="M49.1939 306L51.3416 292.909H52.8757L50.728 306H49.1939ZM43.2685 302.497L43.5178 300.963H53.4382L53.1889 302.497H43.2685ZM44.5916 306L46.7393 292.909H48.2734L46.1257 306H44.5916ZM44.0291 297.946L44.2784 296.412H54.1989L53.9496 297.946H44.0291Z" fill="#6E7191"/>
<path d="M63.046 298.574C63.718 298.694 64.288 299.048 64.756 299.636C65.224 300.224 65.458 300.89 65.458 301.634C65.458 302.27 65.29 302.846 64.954 303.362C64.63 303.866 64.156 304.268 63.532 304.568C62.908 304.856 62.182 305 61.354 305H56.35V292.49H61.12C61.972 292.49 62.704 292.634 63.316 292.922C63.928 293.21 64.39 293.6 64.702 294.092C65.014 294.572 65.17 295.112 65.17 295.712C65.17 296.432 64.978 297.032 64.594 297.512C64.21 297.992 63.694 298.346 63.046 298.574ZM58.402 297.746H60.94C61.612 297.746 62.134 297.596 62.506 297.296C62.89 296.984 63.082 296.54 63.082 295.964C63.082 295.4 62.89 294.962 62.506 294.65C62.134 294.326 61.612 294.164 60.94 294.164H58.402V297.746ZM61.174 303.326C61.87 303.326 62.416 303.158 62.812 302.822C63.208 302.486 63.406 302.018 63.406 301.418C63.406 300.806 63.196 300.32 62.776 299.96C62.356 299.6 61.798 299.42 61.102 299.42H58.402V303.326H61.174ZM76.1299 292.49V294.164H70.8199V297.854H74.9599V299.528H70.8199V305H68.7679V292.49H76.1299ZM85.8076 298.574C86.4796 298.694 87.0496 299.048 87.5176 299.636C87.9856 300.224 88.2196 300.89 88.2196 301.634C88.2196 302.27 88.0516 302.846 87.7156 303.362C87.3916 303.866 86.9176 304.268 86.2936 304.568C85.6696 304.856 84.9436 305 84.1156 305H79.1116V292.49H83.8816C84.7336 292.49 85.4656 292.634 86.0776 292.922C86.6896 293.21 87.1516 293.6 87.4636 294.092C87.7756 294.572 87.9316 295.112 87.9316 295.712C87.9316 296.432 87.7396 297.032 87.3556 297.512C86.9716 297.992 86.4556 298.346 85.8076 298.574ZM81.1636 297.746H83.7016C84.3736 297.746 84.8956 297.596 85.2676 297.296C85.6516 296.984 85.8436 296.54 85.8436 295.964C85.8436 295.4 85.6516 294.962 85.2676 294.65C84.8956 294.326 84.3736 294.164 83.7016 294.164H81.1636V297.746ZM83.9356 303.326C84.6316 303.326 85.1776 303.158 85.5736 302.822C85.9696 302.486 86.1676 302.018 86.1676 301.418C86.1676 300.806 85.9576 300.32 85.5376 299.96C85.1176 299.6 84.5596 299.42 83.8636 299.42H81.1636V303.326H83.9356ZM90.8455 298.718C90.8455 297.494 91.1275 296.396 91.6915 295.424C92.2675 294.452 93.0415 293.696 94.0135 293.156C94.9975 292.604 96.0715 292.328 97.2355 292.328C98.5675 292.328 99.7495 292.658 100.781 293.318C101.825 293.966 102.581 294.89 103.049 296.09H100.583C100.259 295.43 99.8095 294.938 99.2335 294.614C98.6575 294.29 97.9915 294.128 97.2355 294.128C96.4075 294.128 95.6695 294.314 95.0215 294.686C94.3735 295.058 93.8635 295.592 93.4915 296.288C93.1315 296.984 92.9515 297.794 92.9515 298.718C92.9515 299.642 93.1315 300.452 93.4915 301.148C93.8635 301.844 94.3735 302.384 95.0215 302.768C95.6695 303.14 96.4075 303.326 97.2355 303.326C97.9915 303.326 98.6575 303.164 99.2335 302.84C99.8095 302.516 100.259 302.024 100.583 301.364H103.049C102.581 302.564 101.825 303.488 100.781 304.136C99.7495 304.784 98.5675 305.108 97.2355 305.108C96.0595 305.108 94.9855 304.838 94.0135 304.298C93.0415 303.746 92.2675 302.984 91.6915 302.012C91.1275 301.04 90.8455 299.942 90.8455 298.718ZM114.577 293.462L109.573 305H107.503L112.561 293.678H105.901V291.932H114.577V293.462ZM117 298.718C117 297.494 117.282 296.396 117.846 295.424C118.422 294.452 119.196 293.696 120.168 293.156C121.152 292.604 122.226 292.328 123.39 292.328C124.722 292.328 125.904 292.658 126.936 293.318C127.98 293.966 128.736 294.89 129.204 296.09H126.738C126.414 295.43 125.964 294.938 125.388 294.614C124.812 294.29 124.146 294.128 123.39 294.128C122.562 294.128 121.824 294.314 121.176 294.686C120.528 295.058 120.018 295.592 119.646 296.288C119.286 296.984 119.106 297.794 119.106 298.718C119.106 299.642 119.286 300.452 119.646 301.148C120.018 301.844 120.528 302.384 121.176 302.768C121.824 303.14 122.562 303.326 123.39 303.326C124.146 303.326 124.812 303.164 125.388 302.84C125.964 302.516 126.414 302.024 126.738 301.364H129.204C128.736 302.564 127.98 303.488 126.936 304.136C125.904 304.784 124.722 305.108 123.39 305.108C122.214 305.108 121.14 304.838 120.168 304.298C119.196 303.746 118.422 302.984 117.846 302.012C117.282 301.04 117 299.942 117 298.718Z" fill="#6E7191"/>
<path d="M12 34C12 20.7452 22.7452 10 36 10H272C285.255 10 296 20.7452 296 34V230H12V34Z" fill="#BFBC7C"/>
<defs>
<filter id="filter0_d_2_470" x="0" y="0" width="308" height="352" filterUnits="userSpaceOnUse" color-interpolation-filters="sRGB">
<feFlood flood-opacity="0" result="BackgroundImageFix"/>
<feColorMatrix in="SourceAlpha" type="matrix" values="0 0 0 0 0 0 0 0 0 0 0 0 0 0 0 0 0 0 127 0" result="hardAlpha"/>
<feOffset dy="2"/>
<feGaussianBlur stdDeviation="6"/>
<feComposite in2="hardAlpha" operator="out"/>
<feColorMatrix type="matrix" values="0 0 0 0 0.078875 0 0 0 0 0.0770833 0 0 0 0 0.166667 0 0 0 0.08 0"/>
<feBlend mode="normal" in2="BackgroundImageFix" result="effect1_dropShadow_2_470"/>
<feBlend mode="normal" in="SourceGraphic" in2="effect1_dropShadow_2_470" result="shape"/>
</filter>
</defs>
</svg>
