<svg width="308" height="352" viewBox="0 0 308 352" fill="none" xmlns="http://www.w3.org/2000/svg">
<g filter="url(#filter0_d_2_491)">
<path d="M11.9999 34C11.9999 20.7452 22.745 10 35.9999 10H272C285.255 10 296 20.7452 296 34V314C296 327.255 285.255 338 272 338H35.9999C22.745 338 11.9999 327.255 11.9999 314V34Z" fill="white"/>
<path d="M12.4999 34C12.4999 21.0213 23.0212 10.5 35.9999 10.5H272C284.979 10.5 295.5 21.0213 295.5 34V314C295.5 326.979 284.979 337.5 272 337.5H35.9999C23.0212 337.5 12.4999 326.979 12.4999 314V34Z" stroke="#EFF0F7"/>
</g>
<path d="M52.7399 267.8C53.5532 267.973 54.2065 268.38 54.6999 269.02C55.1932 269.647 55.4399 270.367 55.4399 271.18C55.4399 272.353 55.0265 273.287 54.1999 273.98C53.3865 274.66 52.2465 275 50.7799 275H44.2399V260.96H50.5599C51.9865 260.96 53.0999 261.287 53.8999 261.94C54.7132 262.593 55.1199 263.48 55.1199 264.6C55.1199 265.427 54.8999 266.113 54.4599 266.66C54.0332 267.207 53.4599 267.587 52.7399 267.8ZM47.6599 266.64H49.8999C50.4599 266.64 50.8865 266.52 51.1799 266.28C51.4865 266.027 51.6399 265.66 51.6399 265.18C51.6399 264.7 51.4865 264.333 51.1799 264.08C50.8865 263.827 50.4599 263.7 49.8999 263.7H47.6599V266.64ZM50.1799 272.24C50.7532 272.24 51.1932 272.113 51.4999 271.86C51.8199 271.593 51.9799 271.213 51.9799 270.72C51.9799 270.227 51.8132 269.84 51.4799 269.56C51.1599 269.28 50.7132 269.14 50.1399 269.14H47.6599V272.24H50.1799ZM60.8435 260.2V275H57.4235V260.2H60.8435ZM74.3419 263.84V275H70.9219V273.48C70.5752 273.973 70.1019 274.373 69.5019 274.68C68.9152 274.973 68.2619 275.12 67.5419 275.12C66.6886 275.12 65.9352 274.933 65.2819 274.56C64.6286 274.173 64.1219 273.62 63.7619 272.9C63.4019 272.18 63.2219 271.333 63.2219 270.36V263.84H66.6219V269.9C66.6219 270.647 66.8152 271.227 67.2019 271.64C67.5886 272.053 68.1086 272.26 68.7619 272.26C69.4286 272.26 69.9552 272.053 70.3419 271.64C70.7286 271.227 70.9219 270.647 70.9219 269.9V263.84H74.3419ZM87.3185 269.24C87.3185 269.56 87.2985 269.893 87.2585 270.24H79.5185C79.5718 270.933 79.7918 271.467 80.1785 271.84C80.5785 272.2 81.0651 272.38 81.6385 272.38C82.4918 272.38 83.0851 272.02 83.4185 271.3H87.0585C86.8718 272.033 86.5318 272.693 86.0385 273.28C85.5585 273.867 84.9518 274.327 84.2185 274.66C83.4851 274.993 82.6651 275.16 81.7585 275.16C80.6651 275.16 79.6918 274.927 78.8385 274.46C77.9851 273.993 77.3185 273.327 76.8385 272.46C76.3585 271.593 76.1185 270.58 76.1185 269.42C76.1185 268.26 76.3518 267.247 76.8185 266.38C77.2985 265.513 77.9651 264.847 78.8185 264.38C79.6718 263.913 80.6518 263.68 81.7585 263.68C82.8385 263.68 83.7985 263.907 84.6385 264.36C85.4785 264.813 86.1318 265.46 86.5985 266.3C87.0785 267.14 87.3185 268.12 87.3185 269.24ZM83.8185 268.34C83.8185 267.753 83.6185 267.287 83.2185 266.94C82.8185 266.593 82.3185 266.42 81.7185 266.42C81.1451 266.42 80.6585 266.587 80.2585 266.92C79.8718 267.253 79.6318 267.727 79.5385 268.34H83.8185ZM105.921 275H102.501L96.781 266.34V275H93.361V260.96H96.781L102.501 269.66V260.96H105.921V275ZM110.12 262.68C109.52 262.68 109.027 262.507 108.64 262.16C108.267 261.8 108.08 261.36 108.08 260.84C108.08 260.307 108.267 259.867 108.64 259.52C109.027 259.16 109.52 258.98 110.12 258.98C110.707 258.98 111.187 259.16 111.56 259.52C111.947 259.867 112.14 260.307 112.14 260.84C112.14 261.36 111.947 261.8 111.56 262.16C111.187 262.507 110.707 262.68 110.12 262.68ZM111.82 263.84V275H108.4V263.84H111.82ZM118.538 263.68C119.325 263.68 120.012 263.84 120.598 264.16C121.198 264.48 121.658 264.9 121.978 265.42V263.84H125.398V274.98C125.398 276.007 125.192 276.933 124.778 277.76C124.378 278.6 123.758 279.267 122.918 279.76C122.092 280.253 121.058 280.5 119.818 280.5C118.165 280.5 116.825 280.107 115.798 279.32C114.772 278.547 114.185 277.493 114.038 276.16H117.418C117.525 276.587 117.778 276.92 118.178 277.16C118.578 277.413 119.072 277.54 119.658 277.54C120.365 277.54 120.925 277.333 121.338 276.92C121.765 276.52 121.978 275.873 121.978 274.98V273.4C121.645 273.92 121.185 274.347 120.598 274.68C120.012 275 119.325 275.16 118.538 275.16C117.618 275.16 116.785 274.927 116.038 274.46C115.292 273.98 114.698 273.307 114.258 272.44C113.832 271.56 113.618 270.547 113.618 269.4C113.618 268.253 113.832 267.247 114.258 266.38C114.698 265.513 115.292 264.847 116.038 264.38C116.785 263.913 117.618 263.68 118.538 263.68ZM121.978 269.42C121.978 268.567 121.738 267.893 121.258 267.4C120.792 266.907 120.218 266.66 119.538 266.66C118.858 266.66 118.278 266.907 117.798 267.4C117.332 267.88 117.098 268.547 117.098 269.4C117.098 270.253 117.332 270.933 117.798 271.44C118.278 271.933 118.858 272.18 119.538 272.18C120.218 272.18 120.792 271.933 121.258 271.44C121.738 270.947 121.978 270.273 121.978 269.42ZM134.733 263.72C136.013 263.72 137.039 264.147 137.813 265C138.586 265.84 138.973 267 138.973 268.48V275H135.573V268.94C135.573 268.193 135.379 267.613 134.993 267.2C134.606 266.787 134.086 266.58 133.433 266.58C132.779 266.58 132.259 266.787 131.873 267.2C131.486 267.613 131.293 268.193 131.293 268.94V275H127.873V260.2H131.293V265.34C131.639 264.847 132.113 264.453 132.713 264.16C133.313 263.867 133.986 263.72 134.733 263.72ZM147.569 272.1V275H145.829C144.589 275 143.623 274.7 142.929 274.1C142.236 273.487 141.889 272.493 141.889 271.12V266.68H140.529V263.84H141.889V261.12H145.309V263.84H147.549V266.68H145.309V271.16C145.309 271.493 145.389 271.733 145.549 271.88C145.709 272.027 145.976 272.1 146.349 272.1H147.569Z" fill="#211F54"/>
<path d="M49.1938 304L51.3415 290.909H52.8756L50.7279 304H49.1938ZM43.2683 300.497L43.5176 298.963H53.4381L53.1888 300.497H43.2683ZM44.5915 304L46.7392 290.909H48.2733L46.1256 304H44.5915ZM44.029 295.946L44.2783 294.412H54.1987L53.9495 295.946H44.029Z" fill="#6E7191"/>
<path d="M56.0439 293.118C56.1159 292.002 56.5419 291.132 57.3219 290.508C58.1139 289.884 59.1219 289.572 60.3459 289.572C61.1859 289.572 61.9119 289.722 62.5239 290.022C63.1359 290.322 63.5979 290.73 63.9099 291.246C64.2219 291.762 64.3779 292.344 64.3779 292.992C64.3779 293.736 64.1799 294.372 63.7839 294.9C63.3879 295.428 62.9139 295.782 62.3619 295.962V296.034C63.0699 296.25 63.6219 296.646 64.0179 297.222C64.4139 297.786 64.6119 298.512 64.6119 299.4C64.6119 300.108 64.4499 300.738 64.1259 301.29C63.8019 301.842 63.3219 302.28 62.6859 302.604C62.0499 302.916 61.2879 303.072 60.3999 303.072C59.1039 303.072 58.0359 302.742 57.1959 302.082C56.3679 301.41 55.9239 300.45 55.8639 299.202H57.8439C57.8919 299.838 58.1379 300.36 58.5819 300.768C59.0259 301.164 59.6259 301.362 60.3819 301.362C61.1139 301.362 61.6779 301.164 62.0739 300.768C62.4699 300.36 62.6679 299.838 62.6679 299.202C62.6679 298.362 62.3979 297.768 61.8579 297.42C61.3299 297.06 60.5139 296.88 59.4099 296.88H58.9419V295.188H59.4279C60.3999 295.176 61.1379 295.014 61.6419 294.702C62.1579 294.39 62.4159 293.898 62.4159 293.226C62.4159 292.65 62.2299 292.194 61.8579 291.858C61.4859 291.51 60.9579 291.336 60.2739 291.336C59.6019 291.336 59.0799 291.51 58.7079 291.858C58.3359 292.194 58.1139 292.614 58.0419 293.118H56.0439ZM74.9034 292.92C74.7714 292.368 74.5314 291.954 74.1834 291.678C73.8354 291.402 73.3494 291.264 72.7254 291.264C71.7774 291.264 71.0694 291.63 70.6014 292.362C70.1334 293.082 69.8874 294.282 69.8634 295.962C70.1754 295.434 70.6314 295.026 71.2314 294.738C71.8314 294.45 72.4794 294.306 73.1754 294.306C73.9674 294.306 74.6634 294.48 75.2634 294.828C75.8754 295.164 76.3494 295.656 76.6854 296.304C77.0334 296.952 77.2074 297.726 77.2074 298.626C77.2074 299.466 77.0394 300.216 76.7034 300.876C76.3794 301.536 75.8934 302.058 75.2454 302.442C74.5974 302.814 73.8174 303 72.9054 303C71.6694 303 70.6974 302.73 69.9894 302.19C69.2934 301.638 68.8014 300.864 68.5134 299.868C68.2374 298.872 68.0994 297.63 68.0994 296.142C68.0994 291.75 69.6474 289.554 72.7434 289.554C73.9434 289.554 74.8854 289.878 75.5694 290.526C76.2654 291.174 76.6734 291.972 76.7934 292.92H74.9034ZM72.7254 296.034C71.9934 296.034 71.3694 296.256 70.8534 296.7C70.3494 297.132 70.0974 297.762 70.0974 298.59C70.0974 299.418 70.3314 300.078 70.7994 300.57C71.2794 301.05 71.9454 301.29 72.7974 301.29C73.5534 301.29 74.1474 301.056 74.5794 300.588C75.0234 300.12 75.2454 299.496 75.2454 298.716C75.2454 297.9 75.0294 297.252 74.5974 296.772C74.1774 296.28 73.5534 296.034 72.7254 296.034ZM80.4402 293.118C80.5122 292.002 80.9382 291.132 81.7182 290.508C82.5102 289.884 83.5182 289.572 84.7422 289.572C85.5822 289.572 86.3082 289.722 86.9202 290.022C87.5322 290.322 87.9942 290.73 88.3062 291.246C88.6182 291.762 88.7742 292.344 88.7742 292.992C88.7742 293.736 88.5762 294.372 88.1802 294.9C87.7842 295.428 87.3102 295.782 86.7582 295.962V296.034C87.4662 296.25 88.0182 296.646 88.4142 297.222C88.8102 297.786 89.0082 298.512 89.0082 299.4C89.0082 300.108 88.8462 300.738 88.5222 301.29C88.1982 301.842 87.7182 302.28 87.0822 302.604C86.4462 302.916 85.6842 303.072 84.7962 303.072C83.5002 303.072 82.4322 302.742 81.5922 302.082C80.7642 301.41 80.3202 300.45 80.2602 299.202H82.2402C82.2882 299.838 82.5342 300.36 82.9782 300.768C83.4222 301.164 84.0222 301.362 84.7782 301.362C85.5102 301.362 86.0742 301.164 86.4702 300.768C86.8662 300.36 87.0642 299.838 87.0642 299.202C87.0642 298.362 86.7942 297.768 86.2542 297.42C85.7262 297.06 84.9102 296.88 83.8062 296.88H83.3382V295.188H83.8242C84.7962 295.176 85.5342 295.014 86.0382 294.702C86.5542 294.39 86.8122 293.898 86.8122 293.226C86.8122 292.65 86.6262 292.194 86.2542 291.858C85.8822 291.51 85.3542 291.336 84.6702 291.336C83.9982 291.336 83.4762 291.51 83.1042 291.858C82.7322 292.194 82.5102 292.614 82.4382 293.118H80.4402ZM91.8297 296.718C91.8297 295.494 92.1117 294.396 92.6757 293.424C93.2517 292.452 94.0257 291.696 94.9977 291.156C95.9817 290.604 97.0557 290.328 98.2197 290.328C99.5517 290.328 100.734 290.658 101.766 291.318C102.81 291.966 103.566 292.89 104.034 294.09H101.568C101.244 293.43 100.794 292.938 100.218 292.614C99.6417 292.29 98.9757 292.128 98.2197 292.128C97.3917 292.128 96.6537 292.314 96.0057 292.686C95.3577 293.058 94.8477 293.592 94.4757 294.288C94.1157 294.984 93.9357 295.794 93.9357 296.718C93.9357 297.642 94.1157 298.452 94.4757 299.148C94.8477 299.844 95.3577 300.384 96.0057 300.768C96.6537 301.14 97.3917 301.326 98.2197 301.326C98.9757 301.326 99.6417 301.164 100.218 300.84C100.794 300.516 101.244 300.024 101.568 299.364H104.034C103.566 300.564 102.81 301.488 101.766 302.136C100.734 302.784 99.5517 303.108 98.2197 303.108C97.0437 303.108 95.9697 302.838 94.9977 302.298C94.0257 301.746 93.2517 300.984 92.6757 300.012C92.1117 299.04 91.8297 297.942 91.8297 296.718ZM115.706 291.642H109.676V295.224C109.928 294.888 110.3 294.606 110.792 294.378C111.296 294.15 111.83 294.036 112.394 294.036C113.402 294.036 114.218 294.252 114.842 294.684C115.478 295.116 115.928 295.662 116.192 296.322C116.468 296.982 116.606 297.678 116.606 298.41C116.606 299.298 116.432 300.09 116.084 300.786C115.748 301.47 115.238 302.01 114.554 302.406C113.882 302.802 113.054 303 112.07 303C110.762 303 109.712 302.676 108.92 302.028C108.128 301.38 107.654 300.522 107.498 299.454H109.496C109.628 300.018 109.922 300.468 110.378 300.804C110.834 301.128 111.404 301.29 112.088 301.29C112.94 301.29 113.576 301.032 113.996 300.516C114.428 300 114.644 299.316 114.644 298.464C114.644 297.6 114.428 296.94 113.996 296.484C113.564 296.016 112.928 295.782 112.088 295.782C111.5 295.782 111.002 295.932 110.594 296.232C110.198 296.52 109.91 296.916 109.73 297.42H107.786V289.842H115.706V291.642ZM126.878 292.92C126.746 292.368 126.506 291.954 126.158 291.678C125.81 291.402 125.324 291.264 124.7 291.264C123.752 291.264 123.044 291.63 122.576 292.362C122.108 293.082 121.862 294.282 121.838 295.962C122.15 295.434 122.606 295.026 123.206 294.738C123.806 294.45 124.454 294.306 125.15 294.306C125.942 294.306 126.638 294.48 127.238 294.828C127.85 295.164 128.324 295.656 128.66 296.304C129.008 296.952 129.182 297.726 129.182 298.626C129.182 299.466 129.014 300.216 128.678 300.876C128.354 301.536 127.868 302.058 127.22 302.442C126.572 302.814 125.792 303 124.88 303C123.644 303 122.672 302.73 121.964 302.19C121.268 301.638 120.776 300.864 120.488 299.868C120.212 298.872 120.074 297.63 120.074 296.142C120.074 291.75 121.622 289.554 124.718 289.554C125.918 289.554 126.86 289.878 127.544 290.526C128.24 291.174 128.648 291.972 128.768 292.92H126.878ZM124.7 296.034C123.968 296.034 123.344 296.256 122.828 296.7C122.324 297.132 122.072 297.762 122.072 298.59C122.072 299.418 122.306 300.078 122.774 300.57C123.254 301.05 123.92 301.29 124.772 301.29C125.528 301.29 126.122 301.056 126.554 300.588C126.998 300.12 127.22 299.496 127.22 298.716C127.22 297.9 127.004 297.252 126.572 296.772C126.152 296.28 125.528 296.034 124.7 296.034Z" fill="#6E7191"/>
<path d="M11.9999 34C11.9999 20.7452 22.745 10 35.9999 10H272C285.255 10 296 20.7452 296 34V230H11.9999V34Z" fill="#363C56"/>
<defs>
<filter id="filter0_d_2_491" x="-0.00012207" y="0" width="308" height="352" filterUnits="userSpaceOnUse" color-interpolation-filters="sRGB">
<feFlood flood-opacity="0" result="BackgroundImageFix"/>
<feColorMatrix in="SourceAlpha" type="matrix" values="0 0 0 0 0 0 0 0 0 0 0 0 0 0 0 0 0 0 127 0" result="hardAlpha"/>
<feOffset dy="2"/>
<feGaussianBlur stdDeviation="6"/>
<feComposite in2="hardAlpha" operator="out"/>
<feColorMatrix type="matrix" values="0 0 0 0 0.078875 0 0 0 0 0.0770833 0 0 0 0 0.166667 0 0 0 0.08 0"/>
<feBlend mode="normal" in2="BackgroundImageFix" result="effect1_dropShadow_2_491"/>
<feBlend mode="normal" in="SourceGraphic" in2="effect1_dropShadow_2_491" result="shape"/>
</filter>
</defs>
</svg>
