<svg width="721" height="548" viewBox="0 0 721 548" fill="none" xmlns="http://www.w3.org/2000/svg">
<rect width="721" height="548" fill="#363C56"/>
<path fill-rule="evenodd" clip-rule="evenodd" d="M225.657 296.343C218.921 291.107 214.581 282.884 214.581 273.638C214.581 264.392 218.921 256.169 225.657 250.933C220.871 247.213 214.875 245 208.367 245C192.7 245 180 257.822 180 273.638C180 289.454 192.7 302.276 208.367 302.276C214.875 302.276 220.871 300.064 225.657 296.343ZM225.657 296.343C230.444 300.064 236.44 302.276 242.948 302.276C258.615 302.276 271.315 289.454 271.315 273.638C271.315 257.822 258.615 245 242.948 245C236.44 245 230.444 247.213 225.657 250.933C232.393 256.169 236.734 264.392 236.734 273.638C236.734 282.884 232.393 291.107 225.657 296.343Z" fill="#F3F0EB"/>
<path d="M302.773 263.129V272.532H313.731V276.819H302.773V286.637H315.1V290.923H297.568V258.842H315.1V263.129H302.773Z" fill="#F3F0EB"/>
<path d="M351.965 265.111C353.943 265.111 355.709 265.526 357.261 266.355C358.844 267.185 360.077 268.414 360.959 270.043C361.872 271.671 362.329 273.638 362.329 275.943V290.923H357.17V276.726C357.17 274.452 356.607 272.716 355.48 271.518C354.354 270.289 352.817 269.674 350.869 269.674C348.921 269.674 347.369 270.289 346.212 271.518C345.086 272.716 344.523 274.452 344.523 276.726V290.923H339.363V276.726C339.363 274.452 338.8 272.716 337.674 271.518C336.548 270.289 335.011 269.674 333.063 269.674C331.115 269.674 329.562 270.289 328.405 271.518C327.279 272.716 326.716 274.452 326.716 276.726V290.923H321.511V265.526H326.716V268.429C327.568 267.385 328.649 266.57 329.958 265.986C331.267 265.403 332.667 265.111 334.158 265.111C336.167 265.111 337.963 265.541 339.546 266.401C341.129 267.262 342.346 268.506 343.198 270.135C343.959 268.598 345.147 267.385 346.76 266.493C348.373 265.572 350.108 265.111 351.965 265.111Z" fill="#F3F0EB"/>
<path d="M374.157 269.259C375.04 268.091 376.242 267.108 377.764 266.309C379.286 265.51 381.006 265.111 382.923 265.111C385.115 265.111 387.109 265.664 388.904 266.77C390.731 267.846 392.161 269.367 393.196 271.333C394.231 273.3 394.749 275.559 394.749 278.109C394.749 280.66 394.231 282.949 393.196 284.977C392.161 286.975 390.731 288.542 388.904 289.679C387.109 290.785 385.115 291.338 382.923 291.338C381.006 291.338 379.301 290.954 377.81 290.186C376.318 289.387 375.101 288.404 374.157 287.236V303H368.952V265.526H374.157V269.259ZM389.452 278.109C389.452 276.358 389.087 274.852 388.357 273.592C387.656 272.301 386.713 271.333 385.526 270.688C384.369 270.012 383.121 269.674 381.782 269.674C380.473 269.674 379.225 270.012 378.038 270.688C376.881 271.364 375.938 272.347 375.207 273.638C374.507 274.929 374.157 276.45 374.157 278.201C374.157 279.953 374.507 281.489 375.207 282.811C375.938 284.101 376.881 285.085 378.038 285.761C379.225 286.437 380.473 286.775 381.782 286.775C383.121 286.775 384.369 286.437 385.526 285.761C386.713 285.054 387.656 284.04 388.357 282.719C389.087 281.397 389.452 279.861 389.452 278.109Z" fill="#F3F0EB"/>
<path d="M398.161 278.109C398.161 275.559 398.678 273.3 399.713 271.333C400.778 269.367 402.209 267.846 404.005 266.77C405.831 265.664 407.84 265.111 410.032 265.111C412.01 265.111 413.73 265.51 415.191 266.309C416.682 267.077 417.87 268.045 418.752 269.213V265.526H424.003V290.923H418.752V287.144C417.87 288.342 416.667 289.341 415.145 290.14C413.623 290.939 411.888 291.338 409.94 291.338C407.779 291.338 405.801 290.785 404.005 289.679C402.209 288.542 400.778 286.975 399.713 284.977C398.678 282.949 398.161 280.66 398.161 278.109ZM418.752 278.201C418.752 276.45 418.387 274.929 417.656 273.638C416.956 272.347 416.028 271.364 414.871 270.688C413.715 270.012 412.467 269.674 411.127 269.674C409.788 269.674 408.54 270.012 407.384 270.688C406.227 271.333 405.283 272.301 404.553 273.592C403.853 274.852 403.503 276.358 403.503 278.109C403.503 279.861 403.853 281.397 404.553 282.719C405.283 284.04 406.227 285.054 407.384 285.761C408.571 286.437 409.819 286.775 411.127 286.775C412.467 286.775 413.715 286.437 414.871 285.761C416.028 285.085 416.956 284.101 417.656 282.811C418.387 281.489 418.752 279.953 418.752 278.201Z" fill="#F3F0EB"/>
<path d="M436.912 269.812V283.871C436.912 284.824 437.125 285.515 437.551 285.945C438.008 286.345 438.769 286.544 439.834 286.544H443.03V290.923H438.921C436.577 290.923 434.781 290.37 433.533 289.264C432.285 288.158 431.661 286.36 431.661 283.871V269.812H428.693V265.526H431.661V259.211H436.912V265.526H443.03V269.812H436.912Z" fill="#F3F0EB"/>
<path d="M460.839 265.111C462.757 265.111 464.462 265.526 465.953 266.355C467.475 267.185 468.662 268.414 469.514 270.043C470.397 271.671 470.838 273.638 470.838 275.943V290.923H465.679V276.726C465.679 274.452 465.116 272.716 463.99 271.518C462.864 270.289 461.327 269.674 459.378 269.674C457.43 269.674 455.878 270.289 454.721 271.518C453.595 272.716 453.032 274.452 453.032 276.726V290.923H447.827V256.814H453.032V268.476C453.915 267.4 455.026 266.57 456.365 265.986C457.735 265.403 459.226 265.111 460.839 265.111Z" fill="#F3F0EB"/>
<path d="M480.126 262.161C479.182 262.161 478.391 261.838 477.752 261.193C477.112 260.547 476.793 259.748 476.793 258.796C476.793 257.843 477.112 257.044 477.752 256.399C478.391 255.754 479.182 255.431 480.126 255.431C481.039 255.431 481.815 255.754 482.454 256.399C483.094 257.044 483.413 257.843 483.413 258.796C483.413 259.748 483.094 260.547 482.454 261.193C481.815 261.838 481.039 262.161 480.126 262.161ZM482.683 265.526V290.923H477.478V265.526H482.683Z" fill="#F3F0EB"/>
<path d="M487.781 278.201C487.781 275.589 488.299 273.3 489.334 271.333C490.399 269.336 491.86 267.799 493.717 266.724C495.574 265.648 497.704 265.111 500.109 265.111C503.153 265.111 505.664 265.848 507.642 267.323C509.651 268.767 511.006 270.842 511.706 273.546H506.09C505.633 272.286 504.903 271.303 503.898 270.596C502.894 269.889 501.631 269.536 500.109 269.536C497.978 269.536 496.274 270.304 494.995 271.84C493.747 273.346 493.123 275.466 493.123 278.201C493.123 280.936 493.747 283.072 494.995 284.608C496.274 286.145 497.978 286.913 500.109 286.913C503.122 286.913 505.116 285.576 506.09 282.903H511.706C510.975 285.484 509.606 287.543 507.597 289.08C505.588 290.585 503.092 291.338 500.109 291.338C497.704 291.338 495.574 290.8 493.717 289.725C491.86 288.619 490.399 287.082 489.334 285.115C488.299 283.118 487.781 280.813 487.781 278.201Z" fill="#F3F0EB"/>
<path d="M515.158 278.109C515.158 275.559 515.675 273.3 516.71 271.333C517.776 269.367 519.206 267.846 521.002 266.77C522.828 265.664 524.837 265.111 527.029 265.111C529.007 265.111 530.727 265.51 532.188 266.309C533.68 267.077 534.867 268.045 535.749 269.213V265.526H541V290.923H535.749V287.144C534.867 288.342 533.664 289.341 532.142 290.14C530.621 290.939 528.886 291.338 526.938 291.338C524.776 291.338 522.798 290.785 521.002 289.679C519.206 288.542 517.776 286.975 516.71 284.977C515.675 282.949 515.158 280.66 515.158 278.109ZM535.749 278.201C535.749 276.45 535.384 274.929 534.654 273.638C533.954 272.347 533.025 271.364 531.869 270.688C530.712 270.012 529.464 269.674 528.125 269.674C526.785 269.674 525.537 270.012 524.381 270.688C523.224 271.333 522.28 272.301 521.55 273.592C520.85 274.852 520.5 276.358 520.5 278.109C520.5 279.861 520.85 281.397 521.55 282.719C522.28 284.04 523.224 285.054 524.381 285.761C525.568 286.437 526.816 286.775 528.125 286.775C529.464 286.775 530.712 286.437 531.869 285.761C533.025 285.085 533.954 284.101 534.654 282.811C535.384 281.489 535.749 279.953 535.749 278.201Z" fill="#F3F0EB"/>
</svg>
