<svg width="391" height="844" viewBox="0 0 391 844" fill="none" xmlns="http://www.w3.org/2000/svg">
<rect width="390" height="844" fill="white"/>
<path d="M46.7152 23.0627C45.8575 23.0627 45.091 23.2454 44.4159 23.6106C43.7463 23.9703 43.2206 24.4683 42.8388 25.1047C42.4625 25.7356 42.2743 26.4578 42.2743 27.2712V27.2878C42.2743 28.0404 42.4403 28.7156 42.7724 29.3132C43.1099 29.9109 43.572 30.3813 44.1586 30.7244C44.7452 31.0675 45.4203 31.239 46.184 31.239C46.7374 31.239 47.2188 31.156 47.6283 30.99C48.0433 30.824 48.392 30.6054 48.6742 30.3342C48.9564 30.0631 49.1695 29.7698 49.3134 29.4543H49.6039V27.2463H49.1058V27.2629C49.1058 27.7112 49.0007 28.1124 48.7904 28.4666C48.5801 28.8207 48.2951 29.0974 47.9354 29.2966C47.5757 29.4958 47.169 29.5955 46.7152 29.5955C46.2614 29.5955 45.8575 29.4931 45.5033 29.2883C45.1491 29.0836 44.8697 28.8041 44.6649 28.45C44.4602 28.0903 44.3578 27.678 44.3578 27.2131V27.1965C44.3578 26.7483 44.4657 26.3443 44.6815 25.9846C44.8974 25.6194 45.1851 25.3316 45.5448 25.1213C45.9045 24.9111 46.3002 24.8059 46.7318 24.8059C47.1801 24.8059 47.5813 24.9138 47.9354 25.1296C48.2951 25.3455 48.5801 25.6388 48.7904 26.0095C49.0007 26.3803 49.1058 26.7926 49.1058 27.2463L49.4794 29.2468C49.4794 29.3243 49.4794 29.4045 49.4794 29.4875C49.4794 29.565 49.4766 29.6453 49.4711 29.7283C49.4434 30.4919 49.3272 31.1892 49.1224 31.8201C48.9232 32.4454 48.6216 32.9462 48.2177 33.3225C47.8192 33.6933 47.3046 33.8787 46.6737 33.8787C46.3251 33.8787 46.0097 33.8233 45.7274 33.7126C45.4507 33.5964 45.2128 33.4332 45.0136 33.2229C44.8199 33.0126 44.6705 32.7691 44.5653 32.4924L44.5321 32.4094H42.432L42.4486 32.5007C42.5814 33.1095 42.8388 33.6518 43.2206 34.1277C43.608 34.5981 44.0949 34.9688 44.6815 35.24C45.2737 35.5056 45.9377 35.6384 46.6737 35.6384C47.6753 35.6384 48.5359 35.3839 49.2553 34.8748C49.9802 34.3601 50.5363 33.6241 50.9237 32.6667C51.3111 31.7094 51.5048 30.5583 51.5048 29.2136V29.197C51.5048 28.1124 51.3775 27.1855 51.1229 26.4163C50.8684 25.6415 50.517 25.0079 50.0687 24.5154C49.626 24.0173 49.1169 23.6521 48.5414 23.4197C47.9659 23.1817 47.3572 23.0627 46.7152 23.0627ZM55.2733 33.7292C55.6552 33.7292 55.9706 33.6047 56.2196 33.3557C56.4686 33.1012 56.5932 32.7913 56.5932 32.426C56.5932 32.0553 56.4686 31.7454 56.2196 31.4963C55.9706 31.2418 55.6552 31.1145 55.2733 31.1145C54.897 31.1145 54.5816 31.2418 54.327 31.4963C54.078 31.7454 53.9535 32.0553 53.9535 32.426C53.9535 32.7913 54.078 33.1012 54.327 33.3557C54.5816 33.6047 54.897 33.7292 55.2733 33.7292ZM55.2733 27.5701C55.6552 27.5701 55.9706 27.4456 56.2196 27.1965C56.4686 26.942 56.5932 26.6321 56.5932 26.2668C56.5932 25.8961 56.4686 25.5862 56.2196 25.3372C55.9706 25.0826 55.6552 24.9553 55.2733 24.9553C54.897 24.9553 54.5816 25.0826 54.327 25.3372C54.078 25.5862 53.9535 25.8961 53.9535 26.2668C53.9535 26.6321 54.078 26.942 54.327 27.1965C54.5816 27.4456 54.897 27.5701 55.2733 27.5701ZM64.8524 35.3396H66.8944V33.0403H68.5131V31.2722H66.8944V23.3616H63.8812C63.5492 23.8541 63.2172 24.3604 62.8851 24.8806C62.5586 25.3953 62.2294 25.9182 61.8974 26.4495C61.5709 26.9752 61.2416 27.5092 60.9096 28.0515C60.5831 28.5883 60.2593 29.1278 59.9384 29.6702C59.6229 30.2125 59.3075 30.752 58.9921 31.2888V33.0403H64.8524V35.3396ZM60.9843 31.322V31.1975C61.2167 30.788 61.4574 30.3757 61.7064 29.9607C61.9555 29.5401 62.2072 29.1223 62.4618 28.7073C62.7164 28.2867 62.9737 27.8689 63.2338 27.4539C63.4939 27.0388 63.7512 26.6321 64.0058 26.2336C64.2658 25.8352 64.5176 25.4478 64.7611 25.0715H64.8856V31.322H60.9843ZM73.4686 35.3396H75.6019V23.3616H73.4686L70.3392 25.5613V27.5701L73.3192 25.47H73.4686V35.3396Z" fill="#363C56"/>
<rect opacity="0.35" x="332.5" y="20.5186" width="24" height="10.3148" rx="3.8" stroke="#363C56"/>
<path opacity="0.4" d="M358 24.1799V27.7271C358.805 27.4267 359.328 26.7278 359.328 25.9535C359.328 25.1792 358.805 24.4804 358 24.1799Z" fill="#363C56"/>
<rect x="334" y="21.7593" width="21" height="7.83333" rx="2.5" fill="#363C56"/>
<path fill-rule="evenodd" clip-rule="evenodd" d="M316.271 22.7202C318.758 22.7203 321.15 23.5228 322.952 24.962C323.088 25.0731 323.305 25.0717 323.439 24.9588L324.736 23.8591C324.804 23.8019 324.841 23.7244 324.841 23.6437C324.84 23.563 324.802 23.4859 324.733 23.4293C320.002 19.6217 312.538 19.6217 307.807 23.4293C307.739 23.4859 307.7 23.563 307.699 23.6436C307.699 23.7243 307.736 23.8019 307.804 23.8591L309.102 24.9588C309.235 25.0718 309.452 25.0732 309.588 24.962C311.391 23.5227 313.783 22.7202 316.271 22.7202ZM316.267 26.3934C317.624 26.3933 318.933 26.8387 319.939 27.6431C320.076 27.7572 320.29 27.7547 320.423 27.6375L321.71 26.4892C321.778 26.429 321.815 26.3473 321.814 26.2623C321.813 26.1774 321.774 26.0964 321.705 26.0374C318.641 23.5213 313.896 23.5213 310.832 26.0374C310.763 26.0964 310.724 26.1775 310.723 26.2624C310.722 26.3473 310.76 26.429 310.827 26.4892L312.114 27.6375C312.247 27.7547 312.461 27.7572 312.597 27.6431C313.603 26.8393 314.911 26.3939 316.267 26.3934ZM318.792 28.8248C318.794 28.9165 318.756 29.0049 318.689 29.0691L316.512 31.2057C316.449 31.2685 316.362 31.3038 316.271 31.3038C316.18 31.3038 316.093 31.2685 316.029 31.2057L313.852 29.0691C313.785 29.0049 313.748 28.9164 313.75 28.8247C313.752 28.733 313.793 28.6462 313.863 28.5847C315.253 27.4412 317.289 27.4412 318.679 28.5847C318.749 28.6463 318.79 28.7331 318.792 28.8248Z" fill="#363C56"/>
<path fill-rule="evenodd" clip-rule="evenodd" d="M300.2 21.4825C300.2 20.9315 299.722 20.4849 299.133 20.4849H298.067C297.478 20.4849 297 20.9315 297 21.4825V30.1287C297 30.6797 297.478 31.1264 298.067 31.1264H299.133C299.722 31.1264 300.2 30.6797 300.2 30.1287V21.4825ZM292.766 22.6132H293.833C294.422 22.6132 294.899 23.0705 294.899 23.6347V30.1048C294.899 30.669 294.422 31.1264 293.833 31.1264H292.766C292.177 31.1264 291.699 30.669 291.699 30.1048V23.6347C291.699 23.0705 292.177 22.6132 292.766 22.6132ZM288.434 24.9188H287.367C286.778 24.9188 286.301 25.382 286.301 25.9534V30.0918C286.301 30.6632 286.778 31.1264 287.367 31.1264H288.434C289.023 31.1264 289.501 30.6632 289.501 30.0918V25.9534C289.501 25.382 289.023 24.9188 288.434 24.9188ZM283.133 27.0471H282.067C281.478 27.0471 281 27.5037 281 28.0669V30.1066C281 30.6698 281.478 31.1264 282.067 31.1264H283.133C283.722 31.1264 284.2 30.6698 284.2 30.1066V28.0669C284.2 27.5037 283.722 27.0471 283.133 27.0471Z" fill="#363C56"/>
<path d="M39 82.5L31.5 75L39 67.5" stroke="#191B1E" stroke-width="2" stroke-linecap="round" stroke-linejoin="round"/>
<path d="M63.904 77.728H59.248L58.448 80H56.544L60.528 68.864H62.64L66.624 80H64.704L63.904 77.728ZM63.392 76.24L61.584 71.072L59.76 76.24H63.392ZM70.4843 72.672V77.552C70.4843 77.8827 70.5589 78.1227 70.7083 78.272C70.8683 78.4107 71.1349 78.48 71.5083 78.48H72.6283V80H71.1883C70.3669 80 69.7376 79.808 69.3003 79.424C68.8629 79.04 68.6443 78.416 68.6443 77.552V72.672H67.6043V71.184H68.6443V68.992H70.4843V71.184H72.6283V72.672H70.4843ZM76.1334 72.464C76.4 72.016 76.752 71.6693 77.1894 71.424C77.6374 71.168 78.1654 71.04 78.7734 71.04V72.928H78.3094C77.5947 72.928 77.0507 73.1093 76.6774 73.472C76.3147 73.8347 76.1334 74.464 76.1334 75.36V80H74.3094V71.184H76.1334V72.464ZM79.842 75.552C79.842 74.6667 80.0233 73.8827 80.386 73.2C80.7593 72.5173 81.2607 71.9893 81.89 71.616C82.53 71.232 83.234 71.04 84.002 71.04C84.6953 71.04 85.298 71.1787 85.81 71.456C86.3327 71.7227 86.7487 72.0587 87.058 72.464V71.184H88.898V80H87.058V78.688C86.7487 79.104 86.3273 79.4507 85.794 79.728C85.2607 80.0053 84.6527 80.144 83.97 80.144C83.2127 80.144 82.5193 79.952 81.89 79.568C81.2607 79.1733 80.7593 78.6293 80.386 77.936C80.0233 77.232 79.842 76.4373 79.842 75.552ZM87.058 75.584C87.058 74.976 86.93 74.448 86.674 74C86.4287 73.552 86.1033 73.2107 85.698 72.976C85.2927 72.7413 84.8553 72.624 84.386 72.624C83.9167 72.624 83.4793 72.7413 83.074 72.976C82.6687 73.2 82.338 73.536 82.082 73.984C81.8367 74.4213 81.714 74.944 81.714 75.552C81.714 76.16 81.8367 76.6933 82.082 77.152C82.338 77.6107 82.6687 77.9627 83.074 78.208C83.49 78.4427 83.9273 78.56 84.386 78.56C84.8553 78.56 85.2927 78.4427 85.698 78.208C86.1033 77.9733 86.4287 77.632 86.674 77.184C86.93 76.7253 87.058 76.192 87.058 75.584ZM86.322 68.816L82.786 70.56V69.216L86.322 67.264V68.816ZM94.4938 80.144C93.8004 80.144 93.1764 80.0213 92.6218 79.776C92.0778 79.52 91.6458 79.1787 91.3258 78.752C91.0058 78.3147 90.8351 77.8293 90.8138 77.296H92.7018C92.7338 77.6693 92.9098 77.984 93.2298 78.24C93.5604 78.4853 93.9711 78.608 94.4618 78.608C94.9738 78.608 95.3684 78.512 95.6458 78.32C95.9338 78.1173 96.0778 77.8613 96.0778 77.552C96.0778 77.2213 95.9178 76.976 95.5978 76.816C95.2884 76.656 94.7924 76.48 94.1098 76.288C93.4484 76.1067 92.9098 75.9307 92.4938 75.76C92.0778 75.5893 91.7151 75.328 91.4058 74.976C91.1071 74.624 90.9578 74.16 90.9578 73.584C90.9578 73.1147 91.0964 72.688 91.3738 72.304C91.6511 71.9093 92.0458 71.6 92.5578 71.376C93.0804 71.152 93.6778 71.04 94.3498 71.04C95.3524 71.04 96.1578 71.296 96.7658 71.808C97.3844 72.3093 97.7151 72.9973 97.7578 73.872H95.9338C95.9018 73.4773 95.7418 73.1627 95.4538 72.928C95.1658 72.6933 94.7764 72.576 94.2858 72.576C93.8058 72.576 93.4378 72.6667 93.1818 72.848C92.9258 73.0293 92.7978 73.2693 92.7978 73.568C92.7978 73.8027 92.8831 74 93.0538 74.16C93.2244 74.32 93.4324 74.448 93.6778 74.544C93.9231 74.6293 94.2858 74.7413 94.7658 74.88C95.4058 75.0507 95.9284 75.2267 96.3338 75.408C96.7498 75.5787 97.1071 75.8347 97.4058 76.176C97.7044 76.5173 97.8591 76.9707 97.8698 77.536C97.8698 78.0373 97.7311 78.4853 97.4538 78.88C97.1764 79.2747 96.7818 79.584 96.2698 79.808C95.7684 80.032 95.1764 80.144 94.4938 80.144Z" fill="#363C56"/>
<path d="M35.928 147.808H29.256L28.152 151H24.624L30.648 134.224H34.56L40.584 151H37.032L35.928 147.808ZM35.016 145.12L32.592 138.112L30.168 145.12H35.016ZM41.9717 144.352C41.9717 142.976 42.2517 141.776 42.8117 140.752C43.3717 139.712 44.1477 138.912 45.1397 138.352C46.1317 137.776 47.2677 137.488 48.5477 137.488C50.1957 137.488 51.5557 137.904 52.6277 138.736C53.7157 139.552 54.4437 140.704 54.8117 142.192H51.1877C50.9957 141.616 50.6677 141.168 50.2037 140.848C49.7557 140.512 49.1957 140.344 48.5237 140.344C47.5637 140.344 46.8037 140.696 46.2437 141.4C45.6837 142.088 45.4037 143.072 45.4037 144.352C45.4037 145.616 45.6837 146.6 46.2437 147.304C46.8037 147.992 47.5637 148.336 48.5237 148.336C49.8837 148.336 50.7717 147.728 51.1877 146.512H54.8117C54.4437 147.952 53.7157 149.096 52.6277 149.944C51.5397 150.792 50.1797 151.216 48.5477 151.216C47.2677 151.216 46.1317 150.936 45.1397 150.376C44.1477 149.8 43.3717 149 42.8117 147.976C42.2517 146.936 41.9717 145.728 41.9717 144.352ZM61.1852 140.464V146.896C61.1852 147.344 61.2892 147.672 61.4972 147.88C61.7212 148.072 62.0892 148.168 62.6012 148.168H64.1612V151H62.0492C59.2172 151 57.8012 149.624 57.8012 146.872V140.464H56.2172V137.704H57.8012V134.416H61.1852V137.704H64.1612V140.464H61.1852ZM79.1299 137.704V151H75.7459V149.32C75.3139 149.896 74.7459 150.352 74.0419 150.688C73.3539 151.008 72.6019 151.168 71.7859 151.168C70.7459 151.168 69.8259 150.952 69.0259 150.52C68.2259 150.072 67.5939 149.424 67.1299 148.576C66.6819 147.712 66.4579 146.688 66.4579 145.504V137.704H69.8179V145.024C69.8179 146.08 70.0819 146.896 70.6099 147.472C71.1379 148.032 71.8579 148.312 72.7699 148.312C73.6979 148.312 74.4259 148.032 74.9539 147.472C75.4819 146.896 75.7459 146.08 75.7459 145.024V137.704H79.1299ZM81.5811 144.304C81.5811 142.96 81.8451 141.768 82.3731 140.728C82.9171 139.688 83.6451 138.888 84.5571 138.328C85.4851 137.768 86.5171 137.488 87.6531 137.488C88.6451 137.488 89.5091 137.688 90.2451 138.088C90.9971 138.488 91.5971 138.992 92.0451 139.6V137.704H95.4291V151H92.0451V149.056C91.6131 149.68 91.0131 150.2 90.2451 150.616C89.4931 151.016 88.6211 151.216 87.6291 151.216C86.5091 151.216 85.4851 150.928 84.5571 150.352C83.6451 149.776 82.9171 148.968 82.3731 147.928C81.8451 146.872 81.5811 145.664 81.5811 144.304ZM92.0451 144.352C92.0451 143.536 91.8851 142.84 91.5651 142.264C91.2451 141.672 90.8131 141.224 90.2691 140.92C89.7251 140.6 89.1411 140.44 88.5171 140.44C87.8931 140.44 87.3171 140.592 86.7891 140.896C86.2611 141.2 85.8291 141.648 85.4931 142.24C85.1731 142.816 85.0131 143.504 85.0131 144.304C85.0131 145.104 85.1731 145.808 85.4931 146.416C85.8291 147.008 86.2611 147.464 86.7891 147.784C87.3331 148.104 87.9091 148.264 88.5171 148.264C89.1411 148.264 89.7251 148.112 90.2691 147.808C90.8131 147.488 91.2451 147.04 91.5651 146.464C91.8851 145.872 92.0451 145.168 92.0451 144.352ZM102.071 133.24V151H98.7107V133.24H102.071ZM107.094 136.12C106.502 136.12 106.006 135.936 105.606 135.568C105.222 135.184 105.03 134.712 105.03 134.152C105.03 133.592 105.222 133.128 105.606 132.76C106.006 132.376 106.502 132.184 107.094 132.184C107.686 132.184 108.174 132.376 108.558 132.76C108.958 133.128 109.158 133.592 109.158 134.152C109.158 134.712 108.958 135.184 108.558 135.568C108.174 135.936 107.686 136.12 107.094 136.12ZM108.75 137.704V151H105.39V137.704H108.75ZM115.142 148.24H121.07V151H111.326V148.288L117.134 140.464H111.35V137.704H120.998V140.416L115.142 148.24ZM122.808 144.304C122.808 142.96 123.072 141.768 123.6 140.728C124.144 139.688 124.872 138.888 125.784 138.328C126.712 137.768 127.744 137.488 128.88 137.488C129.872 137.488 130.736 137.688 131.472 138.088C132.224 138.488 132.824 138.992 133.272 139.6V137.704H136.656V151H133.272V149.056C132.84 149.68 132.24 150.2 131.472 150.616C130.72 151.016 129.848 151.216 128.856 151.216C127.736 151.216 126.712 150.928 125.784 150.352C124.872 149.776 124.144 148.968 123.6 147.928C123.072 146.872 122.808 145.664 122.808 144.304ZM133.272 144.352C133.272 143.536 133.112 142.84 132.792 142.264C132.472 141.672 132.04 141.224 131.496 140.92C130.952 140.6 130.368 140.44 129.744 140.44C129.12 140.44 128.544 140.592 128.016 140.896C127.488 141.2 127.056 141.648 126.72 142.24C126.4 142.816 126.24 143.504 126.24 144.304C126.24 145.104 126.4 145.808 126.72 146.416C127.056 147.008 127.488 147.464 128.016 147.784C128.56 148.104 129.136 148.264 129.744 148.264C130.368 148.264 130.952 148.112 131.496 147.808C132.04 147.488 132.472 147.04 132.792 146.464C133.112 145.872 133.272 145.168 133.272 144.352ZM143.297 139.768C143.729 139.064 144.289 138.512 144.977 138.112C145.681 137.712 146.481 137.512 147.377 137.512V141.04H146.489C145.433 141.04 144.633 141.288 144.089 141.784C143.561 142.28 143.297 143.144 143.297 144.376V151H139.937V137.704H143.297V139.768ZM161.263 151.216C159.983 151.216 158.831 150.936 157.807 150.376C156.783 149.8 155.975 148.992 155.383 147.952C154.807 146.912 154.519 145.712 154.519 144.352C154.519 142.992 154.815 141.792 155.407 140.752C156.015 139.712 156.839 138.912 157.879 138.352C158.919 137.776 160.079 137.488 161.359 137.488C162.639 137.488 163.799 137.776 164.839 138.352C165.879 138.912 166.695 139.712 167.287 140.752C167.895 141.792 168.199 142.992 168.199 144.352C168.199 145.712 167.887 146.912 167.263 147.952C166.655 148.992 165.823 149.8 164.767 150.376C163.727 150.936 162.559 151.216 161.263 151.216ZM161.263 148.288C161.871 148.288 162.439 148.144 162.967 147.856C163.511 147.552 163.943 147.104 164.263 146.512C164.583 145.92 164.743 145.2 164.743 144.352C164.743 143.088 164.407 142.12 163.735 141.448C163.079 140.76 162.271 140.416 161.311 140.416C160.351 140.416 159.543 140.76 158.887 141.448C158.247 142.12 157.927 143.088 157.927 144.352C157.927 145.616 158.239 146.592 158.863 147.28C159.503 147.952 160.303 148.288 161.263 148.288ZM174.024 139.648C174.456 139.008 175.048 138.488 175.8 138.088C176.568 137.688 177.44 137.488 178.416 137.488C179.552 137.488 180.576 137.768 181.488 138.328C182.416 138.888 183.144 139.688 183.672 140.728C184.216 141.752 184.488 142.944 184.488 144.304C184.488 145.664 184.216 146.872 183.672 147.928C183.144 148.968 182.416 149.776 181.488 150.352C180.576 150.928 179.552 151.216 178.416 151.216C177.424 151.216 176.552 151.024 175.8 150.64C175.064 150.24 174.472 149.728 174.024 149.104V151H170.664V133.24H174.024V139.648ZM181.056 144.304C181.056 143.504 180.888 142.816 180.552 142.24C180.232 141.648 179.8 141.2 179.256 140.896C178.728 140.592 178.152 140.44 177.528 140.44C176.92 140.44 176.344 140.6 175.8 140.92C175.272 141.224 174.84 141.672 174.504 142.264C174.184 142.856 174.024 143.552 174.024 144.352C174.024 145.152 174.184 145.848 174.504 146.44C174.84 147.032 175.272 147.488 175.8 147.808C176.344 148.112 176.92 148.264 177.528 148.264C178.152 148.264 178.728 148.104 179.256 147.784C179.8 147.464 180.232 147.008 180.552 146.416C180.888 145.824 181.056 145.12 181.056 144.304ZM188.633 136.12C188.025 136.12 187.521 135.936 187.121 135.568C186.737 135.184 186.545 134.712 186.545 134.152C186.545 133.592 186.737 133.128 187.121 132.76C187.521 132.376 188.025 132.184 188.633 132.184C189.225 132.184 189.713 132.376 190.097 132.76C190.481 133.128 190.673 133.592 190.673 134.152C190.673 134.712 190.481 135.184 190.097 135.568C189.713 135.936 189.225 136.12 188.633 136.12ZM190.289 153.184C190.289 154.656 189.921 155.712 189.185 156.352C188.465 157.008 187.425 157.336 186.065 157.336H184.577V154.48H185.537C186.049 154.48 186.409 154.376 186.617 154.168C186.825 153.976 186.929 153.656 186.929 153.208V137.704H190.289V153.184ZM205.969 144.064C205.969 144.544 205.937 144.976 205.873 145.36H196.153C196.233 146.32 196.569 147.072 197.161 147.616C197.753 148.16 198.481 148.432 199.345 148.432C200.593 148.432 201.481 147.896 202.009 146.824H205.633C205.249 148.104 204.513 149.16 203.425 149.992C202.337 150.808 201.001 151.216 199.417 151.216C198.137 151.216 196.985 150.936 195.961 150.376C194.953 149.8 194.161 148.992 193.585 147.952C193.025 146.912 192.745 145.712 192.745 144.352C192.745 142.976 193.025 141.768 193.585 140.728C194.145 139.688 194.929 138.888 195.937 138.328C196.945 137.768 198.105 137.488 199.417 137.488C200.681 137.488 201.809 137.76 202.801 138.304C203.809 138.848 204.585 139.624 205.129 140.632C205.689 141.624 205.969 142.768 205.969 144.064ZM202.489 143.104C202.473 142.24 202.161 141.552 201.553 141.04C200.945 140.512 200.201 140.248 199.321 140.248C198.489 140.248 197.785 140.504 197.209 141.016C196.649 141.512 196.305 142.208 196.177 143.104H202.489ZM212.334 140.464V146.896C212.334 147.344 212.438 147.672 212.646 147.88C212.87 148.072 213.238 148.168 213.75 148.168H215.31V151H213.198C210.366 151 208.95 149.624 208.95 146.872V140.464H207.366V137.704H208.95V134.416H212.334V137.704H215.31V140.464H212.334ZM219.43 136.12C218.838 136.12 218.342 135.936 217.942 135.568C217.558 135.184 217.366 134.712 217.366 134.152C217.366 133.592 217.558 133.128 217.942 132.76C218.342 132.376 218.838 132.184 219.43 132.184C220.022 132.184 220.51 132.376 220.894 132.76C221.294 133.128 221.494 133.592 221.494 134.152C221.494 134.712 221.294 135.184 220.894 135.568C220.51 135.936 220.022 136.12 219.43 136.12ZM221.086 137.704V151H217.726V137.704H221.086ZM229.95 147.904L233.31 137.704H236.886L231.966 151H227.886L222.99 137.704H226.59L229.95 147.904ZM244.677 151.216C243.397 151.216 242.245 150.936 241.221 150.376C240.197 149.8 239.389 148.992 238.797 147.952C238.221 146.912 237.933 145.712 237.933 144.352C237.933 142.992 238.229 141.792 238.821 140.752C239.429 139.712 240.253 138.912 241.293 138.352C242.333 137.776 243.493 137.488 244.773 137.488C246.053 137.488 247.213 137.776 248.253 138.352C249.293 138.912 250.109 139.712 250.701 140.752C251.309 141.792 251.613 142.992 251.613 144.352C251.613 145.712 251.301 146.912 250.677 147.952C250.069 148.992 249.237 149.8 248.181 150.376C247.141 150.936 245.973 151.216 244.677 151.216ZM244.677 148.288C245.285 148.288 245.853 148.144 246.381 147.856C246.925 147.552 247.357 147.104 247.677 146.512C247.997 145.92 248.157 145.2 248.157 144.352C248.157 143.088 247.821 142.12 247.149 141.448C246.493 140.76 245.685 140.416 244.725 140.416C243.765 140.416 242.957 140.76 242.301 141.448C241.661 142.12 241.341 143.088 241.341 144.352C241.341 145.616 241.653 146.592 242.277 147.28C242.917 147.952 243.717 148.288 244.677 148.288ZM259.166 151.216C258.078 151.216 257.102 151.024 256.238 150.64C255.374 150.24 254.686 149.704 254.174 149.032C253.678 148.36 253.406 147.616 253.358 146.8H256.742C256.806 147.312 257.054 147.736 257.486 148.072C257.934 148.408 258.486 148.576 259.142 148.576C259.782 148.576 260.278 148.448 260.63 148.192C260.998 147.936 261.182 147.608 261.182 147.208C261.182 146.776 260.958 146.456 260.51 146.248C260.078 146.024 259.382 145.784 258.422 145.528C257.43 145.288 256.614 145.04 255.974 144.784C255.35 144.528 254.806 144.136 254.342 143.608C253.894 143.08 253.67 142.368 253.67 141.472C253.67 140.736 253.878 140.064 254.294 139.456C254.726 138.848 255.334 138.368 256.118 138.016C256.918 137.664 257.854 137.488 258.926 137.488C260.51 137.488 261.774 137.888 262.718 138.688C263.662 139.472 264.182 140.536 264.278 141.88H261.062C261.014 141.352 260.79 140.936 260.39 140.632C260.006 140.312 259.486 140.152 258.83 140.152C258.222 140.152 257.75 140.264 257.414 140.488C257.094 140.712 256.934 141.024 256.934 141.424C256.934 141.872 257.158 142.216 257.606 142.456C258.054 142.68 258.75 142.912 259.694 143.152C260.654 143.392 261.446 143.64 262.07 143.896C262.694 144.152 263.23 144.552 263.678 145.096C264.142 145.624 264.382 146.328 264.398 147.208C264.398 147.976 264.182 148.664 263.75 149.272C263.334 149.88 262.726 150.36 261.926 150.712C261.142 151.048 260.222 151.216 259.166 151.216Z" fill="#363C56"/>
<path d="M29.28 168.104C29.5573 168.104 29.792 168.2 29.984 168.392C30.176 168.584 30.272 168.819 30.272 169.096C30.272 169.373 30.176 169.608 29.984 169.8C29.792 169.992 29.5573 170.088 29.28 170.088C29.0133 170.088 28.784 169.992 28.592 169.8C28.4107 169.608 28.32 169.373 28.32 169.096C28.32 168.819 28.4107 168.584 28.592 168.392C28.784 168.2 29.0133 168.104 29.28 168.104ZM28.272 179.496C27.216 179.496 26.3627 179.197 25.712 178.6C25.0613 178.003 24.736 177.203 24.736 176.2C24.736 175.08 25.0827 174.253 25.776 173.72C26.4693 173.176 27.408 172.904 28.592 172.904L28.64 171.384H29.904L29.968 173.912H29.504C28.448 173.912 27.6213 174.072 27.024 174.392C26.4267 174.712 26.128 175.315 26.128 176.2C26.128 176.84 26.32 177.347 26.704 177.72C27.088 178.093 27.6053 178.28 28.256 178.28C28.9173 178.28 29.4347 178.099 29.808 177.736C30.192 177.384 30.384 176.899 30.384 176.28H31.76C31.76 176.92 31.616 177.48 31.328 177.96C31.04 178.451 30.6293 178.829 30.096 179.096C29.5733 179.363 28.9653 179.496 28.272 179.496ZM42.4729 179.112L40.2489 176.888C39.7049 177.037 39.1502 177.112 38.5849 177.112C37.5502 177.112 36.6062 176.872 35.7529 176.392C34.8995 175.901 34.2222 175.224 33.7209 174.36C33.2302 173.485 32.9849 172.504 32.9849 171.416C32.9849 170.328 33.2302 169.352 33.7209 168.488C34.2222 167.613 34.8995 166.936 35.7529 166.456C36.6062 165.965 37.5502 165.72 38.5849 165.72C39.6302 165.72 40.5795 165.965 41.4329 166.456C42.2862 166.936 42.9582 167.608 43.4489 168.472C43.9395 169.336 44.1849 170.317 44.1849 171.416C44.1849 172.483 43.9502 173.443 43.4809 174.296C43.0115 175.149 42.3662 175.821 41.5449 176.312L44.3609 179.112H42.4729ZM34.4729 171.416C34.4729 172.301 34.6489 173.08 35.0009 173.752C35.3635 174.424 35.8542 174.941 36.4729 175.304C37.1022 175.667 37.8062 175.848 38.5849 175.848C39.3635 175.848 40.0622 175.667 40.6809 175.304C41.3102 174.941 41.8009 174.424 42.1529 173.752C42.5155 173.08 42.6969 172.301 42.6969 171.416C42.6969 170.52 42.5155 169.741 42.1529 169.08C41.8009 168.408 41.3155 167.891 40.6969 167.528C40.0782 167.165 39.3742 166.984 38.5849 166.984C37.7955 166.984 37.0915 167.165 36.4729 167.528C35.8542 167.891 35.3635 168.408 35.0009 169.08C34.6489 169.741 34.4729 170.52 34.4729 171.416ZM53.9143 168.232V177H52.4583V175.704C52.1809 176.152 51.7916 176.504 51.2903 176.76C50.7996 177.005 50.2556 177.128 49.6583 177.128C48.9756 177.128 48.3623 176.989 47.8183 176.712C47.2743 176.424 46.8423 175.997 46.5223 175.432C46.2129 174.867 46.0583 174.179 46.0583 173.368V168.232H47.4983V173.176C47.4983 174.04 47.7169 174.707 48.1543 175.176C48.5916 175.635 49.1889 175.864 49.9463 175.864C50.7249 175.864 51.3383 175.624 51.7863 175.144C52.2343 174.664 52.4583 173.965 52.4583 173.048V168.232H53.9143ZM64.3726 172.28C64.3726 172.557 64.3566 172.851 64.3246 173.16H57.3166C57.37 174.024 57.6633 174.701 58.1966 175.192C58.7406 175.672 59.3966 175.912 60.1646 175.912C60.794 175.912 61.3166 175.768 61.7326 175.48C62.1593 175.181 62.458 174.787 62.6286 174.296H64.1966C63.962 175.139 63.4926 175.827 62.7886 176.36C62.0846 176.883 61.21 177.144 60.1646 177.144C59.3326 177.144 58.586 176.957 57.9246 176.584C57.274 176.211 56.762 175.683 56.3886 175C56.0153 174.307 55.8286 173.507 55.8286 172.6C55.8286 171.693 56.01 170.899 56.3726 170.216C56.7353 169.533 57.242 169.011 57.8926 168.648C58.554 168.275 59.3113 168.088 60.1646 168.088C60.9966 168.088 61.7326 168.269 62.3726 168.632C63.0126 168.995 63.5033 169.496 63.8446 170.136C64.1966 170.765 64.3726 171.48 64.3726 172.28ZM62.8686 171.976C62.8686 171.421 62.746 170.947 62.5006 170.552C62.2553 170.147 61.9193 169.843 61.4926 169.64C61.0766 169.427 60.6126 169.32 60.1006 169.32C59.3646 169.32 58.7353 169.555 58.2126 170.024C57.7006 170.493 57.4073 171.144 57.3326 171.976H62.8686ZM72.3361 169.432V174.6C72.3361 175.027 72.4268 175.331 72.6081 175.512C72.7895 175.683 73.1041 175.768 73.5521 175.768H74.6241V177H73.3121C72.5015 177 71.8935 176.813 71.4881 176.44C71.0828 176.067 70.8801 175.453 70.8801 174.6V169.432H69.7441V168.232H70.8801V166.024H72.3361V168.232H74.6241V169.432H72.3361ZM84.3883 172.28C84.3883 172.557 84.3723 172.851 84.3403 173.16H77.3323C77.3856 174.024 77.6789 174.701 78.2123 175.192C78.7563 175.672 79.4123 175.912 80.1803 175.912C80.8096 175.912 81.3323 175.768 81.7483 175.48C82.1749 175.181 82.4736 174.787 82.6443 174.296H84.2123C83.9776 175.139 83.5083 175.827 82.8043 176.36C82.1003 176.883 81.2256 177.144 80.1803 177.144C79.3483 177.144 78.6016 176.957 77.9403 176.584C77.2896 176.211 76.7776 175.683 76.4043 175C76.0309 174.307 75.8443 173.507 75.8443 172.6C75.8443 171.693 76.0256 170.899 76.3883 170.216C76.7509 169.533 77.2576 169.011 77.9083 168.648C78.5696 168.275 79.3269 168.088 80.1803 168.088C81.0123 168.088 81.7483 168.269 82.3883 168.632C83.0283 168.995 83.5189 169.496 83.8603 170.136C84.2123 170.765 84.3883 171.48 84.3883 172.28ZM82.8843 171.976C82.8843 171.421 82.7616 170.947 82.5163 170.552C82.2709 170.147 81.9349 169.843 81.5083 169.64C81.0923 169.427 80.6283 169.32 80.1163 169.32C79.3803 169.32 78.7509 169.555 78.2283 170.024C77.7163 170.493 77.4229 171.144 77.3483 171.976H82.8843ZM94.1918 168.088C94.9491 168.088 95.6104 168.253 96.1758 168.584C96.7518 168.915 97.1784 169.331 97.4558 169.832V168.232H98.9278V177.192C98.9278 177.992 98.7571 178.701 98.4158 179.32C98.0744 179.949 97.5838 180.44 96.9438 180.792C96.3144 181.144 95.5784 181.32 94.7358 181.32C93.5838 181.32 92.6238 181.048 91.8558 180.504C91.0878 179.96 90.6344 179.219 90.4958 178.28H91.9358C92.0958 178.813 92.4264 179.24 92.9278 179.56C93.4291 179.891 94.0318 180.056 94.7358 180.056C95.5358 180.056 96.1864 179.805 96.6878 179.304C97.1998 178.803 97.4558 178.099 97.4558 177.192V175.352C97.1678 175.864 96.7411 176.291 96.1758 176.632C95.6104 176.973 94.9491 177.144 94.1918 177.144C93.4131 177.144 92.7038 176.952 92.0638 176.568C91.4344 176.184 90.9384 175.645 90.5758 174.952C90.2131 174.259 90.0318 173.469 90.0318 172.584C90.0318 171.688 90.2131 170.904 90.5758 170.232C90.9384 169.549 91.4344 169.021 92.0638 168.648C92.7038 168.275 93.4131 168.088 94.1918 168.088ZM97.4558 172.6C97.4558 171.939 97.3224 171.363 97.0558 170.872C96.7891 170.381 96.4264 170.008 95.9678 169.752C95.5198 169.485 95.0238 169.352 94.4798 169.352C93.9358 169.352 93.4398 169.48 92.9918 169.736C92.5438 169.992 92.1864 170.365 91.9198 170.856C91.6531 171.347 91.5198 171.923 91.5198 172.584C91.5198 173.256 91.6531 173.843 91.9198 174.344C92.1864 174.835 92.5438 175.213 92.9918 175.48C93.4398 175.736 93.9358 175.864 94.4798 175.864C95.0238 175.864 95.5198 175.736 95.9678 175.48C96.4264 175.213 96.7891 174.835 97.0558 174.344C97.3224 173.843 97.4558 173.261 97.4558 172.6ZM109.164 168.232V177H107.708V175.704C107.431 176.152 107.042 176.504 106.54 176.76C106.05 177.005 105.506 177.128 104.908 177.128C104.226 177.128 103.612 176.989 103.068 176.712C102.524 176.424 102.092 175.997 101.772 175.432C101.463 174.867 101.308 174.179 101.308 173.368V168.232H102.748V173.176C102.748 174.04 102.967 174.707 103.404 175.176C103.842 175.635 104.439 175.864 105.196 175.864C105.975 175.864 106.588 175.624 107.036 175.144C107.484 174.664 107.708 173.965 107.708 173.048V168.232H109.164ZM114.727 177.144C114.055 177.144 113.452 177.032 112.919 176.808C112.385 176.573 111.964 176.253 111.655 175.848C111.345 175.432 111.175 174.957 111.143 174.424H112.647C112.689 174.861 112.892 175.219 113.255 175.496C113.628 175.773 114.113 175.912 114.711 175.912C115.265 175.912 115.703 175.789 116.023 175.544C116.343 175.299 116.503 174.989 116.503 174.616C116.503 174.232 116.332 173.949 115.991 173.768C115.649 173.576 115.121 173.389 114.407 173.208C113.756 173.037 113.223 172.867 112.807 172.696C112.401 172.515 112.049 172.253 111.751 171.912C111.463 171.56 111.319 171.101 111.319 170.536C111.319 170.088 111.452 169.677 111.719 169.304C111.985 168.931 112.364 168.637 112.855 168.424C113.345 168.2 113.905 168.088 114.535 168.088C115.505 168.088 116.289 168.333 116.887 168.824C117.484 169.315 117.804 169.987 117.847 170.84H116.391C116.359 170.381 116.172 170.013 115.831 169.736C115.5 169.459 115.052 169.32 114.487 169.32C113.964 169.32 113.548 169.432 113.239 169.656C112.929 169.88 112.775 170.173 112.775 170.536C112.775 170.824 112.865 171.064 113.047 171.256C113.239 171.437 113.473 171.587 113.751 171.704C114.039 171.811 114.433 171.933 114.935 172.072C115.564 172.243 116.076 172.413 116.471 172.584C116.865 172.744 117.201 172.989 117.479 173.32C117.767 173.651 117.916 174.083 117.927 174.616C117.927 175.096 117.793 175.528 117.527 175.912C117.26 176.296 116.881 176.6 116.391 176.824C115.911 177.037 115.356 177.144 114.727 177.144ZM121.758 169.432V174.6C121.758 175.027 121.849 175.331 122.03 175.512C122.211 175.683 122.526 175.768 122.974 175.768H124.046V177H122.734C121.923 177 121.315 176.813 120.91 176.44C120.505 176.067 120.302 175.453 120.302 174.6V169.432H119.166V168.232H120.302V166.024H121.758V168.232H124.046V169.432H121.758ZM125.266 172.584C125.266 171.688 125.447 170.904 125.81 170.232C126.173 169.549 126.669 169.021 127.298 168.648C127.938 168.275 128.647 168.088 129.426 168.088C130.194 168.088 130.861 168.253 131.426 168.584C131.991 168.915 132.413 169.331 132.69 169.832V168.232H134.162V177H132.69V175.368C132.402 175.88 131.97 176.307 131.394 176.648C130.829 176.979 130.167 177.144 129.41 177.144C128.631 177.144 127.927 176.952 127.298 176.568C126.669 176.184 126.173 175.645 125.81 174.952C125.447 174.259 125.266 173.469 125.266 172.584ZM132.69 172.6C132.69 171.939 132.557 171.363 132.29 170.872C132.023 170.381 131.661 170.008 131.202 169.752C130.754 169.485 130.258 169.352 129.714 169.352C129.17 169.352 128.674 169.48 128.226 169.736C127.778 169.992 127.421 170.365 127.154 170.856C126.887 171.347 126.754 171.923 126.754 172.584C126.754 173.256 126.887 173.843 127.154 174.344C127.421 174.835 127.778 175.213 128.226 175.48C128.674 175.736 129.17 175.864 129.714 175.864C130.258 175.864 130.754 175.736 131.202 175.48C131.661 175.213 132.023 174.835 132.29 174.344C132.557 173.843 132.69 173.261 132.69 172.6ZM138.079 169.656C138.335 169.155 138.697 168.765 139.167 168.488C139.647 168.211 140.228 168.072 140.911 168.072V169.576H140.527C138.895 169.576 138.079 170.461 138.079 172.232V177H136.623V168.232H138.079V169.656ZM143.343 166.808C143.066 166.808 142.831 166.712 142.639 166.52C142.447 166.328 142.351 166.093 142.351 165.816C142.351 165.539 142.447 165.304 142.639 165.112C142.831 164.92 143.066 164.824 143.343 164.824C143.61 164.824 143.834 164.92 144.015 165.112C144.207 165.304 144.303 165.539 144.303 165.816C144.303 166.093 144.207 166.328 144.015 166.52C143.834 166.712 143.61 166.808 143.343 166.808ZM144.047 168.232V177H142.591V168.232H144.047ZM145.985 172.584C145.985 171.688 146.166 170.904 146.529 170.232C146.892 169.549 147.388 169.021 148.017 168.648C148.657 168.275 149.366 168.088 150.145 168.088C150.913 168.088 151.58 168.253 152.145 168.584C152.71 168.915 153.132 169.331 153.409 169.832V168.232H154.881V177H153.409V175.368C153.121 175.88 152.689 176.307 152.113 176.648C151.548 176.979 150.886 177.144 150.129 177.144C149.35 177.144 148.646 176.952 148.017 176.568C147.388 176.184 146.892 175.645 146.529 174.952C146.166 174.259 145.985 173.469 145.985 172.584ZM153.409 172.6C153.409 171.939 153.276 171.363 153.009 170.872C152.742 170.381 152.38 170.008 151.921 169.752C151.473 169.485 150.977 169.352 150.433 169.352C149.889 169.352 149.393 169.48 148.945 169.736C148.497 169.992 148.14 170.365 147.873 170.856C147.606 171.347 147.473 171.923 147.473 172.584C147.473 173.256 147.606 173.843 147.873 174.344C148.14 174.835 148.497 175.213 148.945 175.48C149.393 175.736 149.889 175.864 150.433 175.864C150.977 175.864 151.473 175.736 151.921 175.48C152.38 175.213 152.742 174.835 153.009 174.344C153.276 173.843 153.409 173.261 153.409 172.6ZM172.151 168.072C172.834 168.072 173.442 168.216 173.975 168.504C174.508 168.781 174.93 169.203 175.239 169.768C175.548 170.333 175.703 171.021 175.703 171.832V177H174.263V172.04C174.263 171.165 174.044 170.499 173.607 170.04C173.18 169.571 172.599 169.336 171.863 169.336C171.106 169.336 170.503 169.581 170.055 170.072C169.607 170.552 169.383 171.251 169.383 172.168V177H167.943V172.04C167.943 171.165 167.724 170.499 167.287 170.04C166.86 169.571 166.279 169.336 165.543 169.336C164.786 169.336 164.183 169.581 163.735 170.072C163.287 170.552 163.063 171.251 163.063 172.168V177H161.607V168.232H163.063V169.496C163.351 169.037 163.735 168.685 164.215 168.44C164.706 168.195 165.244 168.072 165.831 168.072C166.567 168.072 167.218 168.237 167.783 168.568C168.348 168.899 168.77 169.384 169.047 170.024C169.292 169.405 169.698 168.925 170.263 168.584C170.828 168.243 171.458 168.072 172.151 168.072ZM186.091 172.28C186.091 172.557 186.075 172.851 186.043 173.16H179.035C179.089 174.024 179.382 174.701 179.915 175.192C180.459 175.672 181.115 175.912 181.883 175.912C182.513 175.912 183.035 175.768 183.451 175.48C183.878 175.181 184.177 174.787 184.347 174.296H185.915C185.681 175.139 185.211 175.827 184.507 176.36C183.803 176.883 182.929 177.144 181.883 177.144C181.051 177.144 180.305 176.957 179.643 176.584C178.993 176.211 178.481 175.683 178.107 175C177.734 174.307 177.547 173.507 177.547 172.6C177.547 171.693 177.729 170.899 178.091 170.216C178.454 169.533 178.961 169.011 179.611 168.648C180.273 168.275 181.03 168.088 181.883 168.088C182.715 168.088 183.451 168.269 184.091 168.632C184.731 168.995 185.222 169.496 185.563 170.136C185.915 170.765 186.091 171.48 186.091 172.28ZM184.587 171.976C184.587 171.421 184.465 170.947 184.219 170.552C183.974 170.147 183.638 169.843 183.211 169.64C182.795 169.427 182.331 169.32 181.819 169.32C181.083 169.32 180.454 169.555 179.931 170.024C179.419 170.493 179.126 171.144 179.051 171.976H184.587ZM188.797 166.808C188.52 166.808 188.285 166.712 188.093 166.52C187.912 166.328 187.821 166.093 187.821 165.816C187.821 165.539 187.912 165.304 188.093 165.112C188.285 164.92 188.52 164.824 188.797 164.824C189.075 164.824 189.304 164.92 189.485 165.112C189.677 165.304 189.773 165.539 189.773 165.816C189.773 166.093 189.677 166.328 189.485 166.52C189.304 166.712 189.075 166.808 188.797 166.808ZM189.517 178.904C189.517 179.683 189.32 180.253 188.925 180.616C188.531 180.979 187.955 181.16 187.197 181.16H186.349V179.928H186.957C187.363 179.928 187.645 179.848 187.805 179.688C187.976 179.528 188.061 179.256 188.061 178.872V168.232H189.517V178.904ZM195.806 177.144C194.985 177.144 194.238 176.957 193.566 176.584C192.905 176.211 192.382 175.683 191.998 175C191.625 174.307 191.438 173.507 191.438 172.6C191.438 171.704 191.63 170.915 192.014 170.232C192.409 169.539 192.942 169.011 193.614 168.648C194.286 168.275 195.038 168.088 195.87 168.088C196.702 168.088 197.454 168.275 198.126 168.648C198.798 169.011 199.326 169.533 199.71 170.216C200.105 170.899 200.302 171.693 200.302 172.6C200.302 173.507 200.099 174.307 199.694 175C199.299 175.683 198.761 176.211 198.078 176.584C197.395 176.957 196.638 177.144 195.806 177.144ZM195.806 175.864C196.329 175.864 196.819 175.741 197.278 175.496C197.737 175.251 198.105 174.883 198.382 174.392C198.67 173.901 198.814 173.304 198.814 172.6C198.814 171.896 198.675 171.299 198.398 170.808C198.121 170.317 197.758 169.955 197.31 169.72C196.862 169.475 196.377 169.352 195.854 169.352C195.321 169.352 194.83 169.475 194.382 169.72C193.945 169.955 193.593 170.317 193.326 170.808C193.059 171.299 192.926 171.896 192.926 172.6C192.926 173.315 193.054 173.917 193.31 174.408C193.577 174.899 193.929 175.267 194.366 175.512C194.803 175.747 195.283 175.864 195.806 175.864ZM203.672 169.656C203.928 169.155 204.291 168.765 204.76 168.488C205.24 168.211 205.822 168.072 206.504 168.072V169.576H206.12C204.488 169.576 203.672 170.461 203.672 172.232V177H202.216V168.232H203.672V169.656ZM207.641 172.584C207.641 171.688 207.822 170.904 208.185 170.232C208.548 169.549 209.044 169.021 209.673 168.648C210.313 168.275 211.022 168.088 211.801 168.088C212.569 168.088 213.236 168.253 213.801 168.584C214.366 168.915 214.788 169.331 215.065 169.832V168.232H216.537V177H215.065V175.368C214.777 175.88 214.345 176.307 213.769 176.648C213.204 176.979 212.542 177.144 211.785 177.144C211.006 177.144 210.302 176.952 209.673 176.568C209.044 176.184 208.548 175.645 208.185 174.952C207.822 174.259 207.641 173.469 207.641 172.584ZM215.065 172.6C215.065 171.939 214.932 171.363 214.665 170.872C214.398 170.381 214.036 170.008 213.577 169.752C213.129 169.485 212.633 169.352 212.089 169.352C211.545 169.352 211.049 169.48 210.601 169.736C210.153 169.992 209.796 170.365 209.529 170.856C209.262 171.347 209.129 171.923 209.129 172.584C209.129 173.256 209.262 173.843 209.529 174.344C209.796 174.835 210.153 175.213 210.601 175.48C211.049 175.736 211.545 175.864 212.089 175.864C212.633 175.864 213.129 175.736 213.577 175.48C214.036 175.213 214.398 174.835 214.665 174.344C214.932 173.843 215.065 173.261 215.065 172.6ZM220.454 169.656C220.71 169.155 221.072 168.765 221.542 168.488C222.022 168.211 222.603 168.072 223.286 168.072V169.576H222.902C221.27 169.576 220.454 170.461 220.454 172.232V177H218.998V168.232H220.454V169.656ZM227.814 165.704C228.87 165.704 229.724 166.003 230.374 166.6C231.025 167.197 231.35 167.997 231.35 169C231.35 170.12 231.004 170.952 230.31 171.496C229.617 172.029 228.678 172.296 227.494 172.296L227.446 173.816H226.182L226.118 171.288H226.582C227.638 171.288 228.465 171.128 229.062 170.808C229.66 170.488 229.958 169.885 229.958 169C229.958 168.36 229.766 167.853 229.382 167.48C228.998 167.107 228.481 166.92 227.83 166.92C227.169 166.92 226.646 167.101 226.262 167.464C225.889 167.816 225.702 168.301 225.702 168.92H224.326C224.326 168.28 224.47 167.72 224.758 167.24C225.046 166.749 225.452 166.371 225.974 166.104C226.508 165.837 227.121 165.704 227.814 165.704ZM226.806 177.096C226.529 177.096 226.294 177 226.102 176.808C225.91 176.616 225.814 176.381 225.814 176.104C225.814 175.827 225.91 175.592 226.102 175.4C226.294 175.208 226.529 175.112 226.806 175.112C227.073 175.112 227.297 175.208 227.478 175.4C227.67 175.592 227.766 175.827 227.766 176.104C227.766 176.381 227.67 176.616 227.478 176.808C227.297 177 227.073 177.096 226.806 177.096Z" fill="#9A9DAA"/>
<path d="M24.5 223C24.5 214.44 31.4396 207.5 40 207.5H350C358.56 207.5 365.5 214.44 365.5 223V531C365.5 539.56 358.56 546.5 350 546.5H40C31.4396 546.5 24.5 539.56 24.5 531V223Z" fill="#EFF3F8"/>
<path d="M24.5 223C24.5 214.44 31.4396 207.5 40 207.5H350C358.56 207.5 365.5 214.44 365.5 223V531C365.5 539.56 358.56 546.5 350 546.5H40C31.4396 546.5 24.5 539.56 24.5 531V223Z" stroke="#8BABE8"/>
<path d="M63.9831 249.624C63.4391 249.624 62.9751 249.437 62.5911 249.064C62.2178 248.68 62.0311 248.216 62.0311 247.672C62.0311 247.117 62.2178 246.653 62.5911 246.28C62.9751 245.896 63.4391 245.704 63.9831 245.704C64.5378 245.704 65.0071 245.896 65.3911 246.28C65.7751 246.653 65.9671 247.117 65.9671 247.672C65.9671 248.216 65.7751 248.68 65.3911 249.064C65.0071 249.437 64.5378 249.624 63.9831 249.624ZM86 253H84.544L78.688 244.12V253H77.232V241.832H78.688L84.544 250.696V241.832H86V253ZM96.258 244.232V253H94.802V251.704C94.5247 252.152 94.1353 252.504 93.634 252.76C93.1433 253.005 92.5993 253.128 92.002 253.128C91.3193 253.128 90.706 252.989 90.162 252.712C89.618 252.424 89.186 251.997 88.866 251.432C88.5567 250.867 88.402 250.179 88.402 249.368V244.232H89.842V249.176C89.842 250.04 90.0607 250.707 90.498 251.176C90.9353 251.635 91.5327 251.864 92.29 251.864C93.0687 251.864 93.682 251.624 94.13 251.144C94.578 250.664 94.802 249.965 94.802 249.048V244.232H96.258ZM106.716 248.28C106.716 248.557 106.7 248.851 106.668 249.16H99.6604C99.7137 250.024 100.007 250.701 100.54 251.192C101.084 251.672 101.74 251.912 102.508 251.912C103.138 251.912 103.66 251.768 104.076 251.48C104.503 251.181 104.802 250.787 104.972 250.296H106.54C106.306 251.139 105.836 251.827 105.132 252.36C104.428 252.883 103.554 253.144 102.508 253.144C101.676 253.144 100.93 252.957 100.268 252.584C99.6177 252.211 99.1057 251.683 98.7324 251C98.359 250.307 98.1724 249.507 98.1724 248.6C98.1724 247.693 98.3537 246.899 98.7164 246.216C99.079 245.533 99.5857 245.011 100.236 244.648C100.898 244.275 101.655 244.088 102.508 244.088C103.34 244.088 104.076 244.269 104.716 244.632C105.356 244.995 105.847 245.496 106.188 246.136C106.54 246.765 106.716 247.48 106.716 248.28ZM105.212 247.976C105.212 247.421 105.09 246.947 104.844 246.552C104.599 246.147 104.263 245.843 103.836 245.64C103.42 245.427 102.956 245.32 102.444 245.32C101.708 245.32 101.079 245.555 100.556 246.024C100.044 246.493 99.751 247.144 99.6764 247.976H105.212ZM111.902 251.656L114.622 244.232H116.174L112.734 253H111.038L107.598 244.232H109.166L111.902 251.656ZM121.431 253.144C120.61 253.144 119.863 252.957 119.191 252.584C118.53 252.211 118.007 251.683 117.623 251C117.25 250.307 117.063 249.507 117.063 248.6C117.063 247.704 117.255 246.915 117.639 246.232C118.034 245.539 118.567 245.011 119.239 244.648C119.911 244.275 120.663 244.088 121.495 244.088C122.327 244.088 123.079 244.275 123.751 244.648C124.423 245.011 124.951 245.533 125.335 246.216C125.73 246.899 125.927 247.693 125.927 248.6C125.927 249.507 125.724 250.307 125.319 251C124.924 251.683 124.386 252.211 123.703 252.584C123.02 252.957 122.263 253.144 121.431 253.144ZM121.431 251.864C121.954 251.864 122.444 251.741 122.903 251.496C123.362 251.251 123.73 250.883 124.007 250.392C124.295 249.901 124.439 249.304 124.439 248.6C124.439 247.896 124.3 247.299 124.023 246.808C123.746 246.317 123.383 245.955 122.935 245.72C122.487 245.475 122.002 245.352 121.479 245.352C120.946 245.352 120.455 245.475 120.007 245.72C119.57 245.955 119.218 246.317 118.951 246.808C118.684 247.299 118.551 247.896 118.551 248.6C118.551 249.315 118.679 249.917 118.935 250.408C119.202 250.899 119.554 251.267 119.991 251.512C120.428 251.747 120.908 251.864 121.431 251.864ZM135.931 253.144C135.11 253.144 134.363 252.957 133.691 252.584C133.03 252.211 132.507 251.683 132.123 251C131.75 250.307 131.563 249.507 131.563 248.6C131.563 247.704 131.755 246.915 132.139 246.232C132.534 245.539 133.067 245.011 133.739 244.648C134.411 244.275 135.163 244.088 135.995 244.088C136.827 244.088 137.579 244.275 138.251 244.648C138.923 245.011 139.451 245.533 139.835 246.216C140.23 246.899 140.427 247.693 140.427 248.6C140.427 249.507 140.224 250.307 139.819 251C139.424 251.683 138.886 252.211 138.203 252.584C137.52 252.957 136.763 253.144 135.931 253.144ZM135.931 251.864C136.454 251.864 136.944 251.741 137.403 251.496C137.862 251.251 138.23 250.883 138.507 250.392C138.795 249.901 138.939 249.304 138.939 248.6C138.939 247.896 138.8 247.299 138.523 246.808C138.246 246.317 137.883 245.955 137.435 245.72C136.987 245.475 136.502 245.352 135.979 245.352C135.446 245.352 134.955 245.475 134.507 245.72C134.07 245.955 133.718 246.317 133.451 246.808C133.184 247.299 133.051 247.896 133.051 248.6C133.051 249.315 133.179 249.917 133.435 250.408C133.702 250.899 134.054 251.267 134.491 251.512C134.928 251.747 135.408 251.864 135.931 251.864ZM143.797 245.864C144.096 245.341 144.533 244.915 145.109 244.584C145.685 244.253 146.341 244.088 147.077 244.088C147.867 244.088 148.576 244.275 149.205 244.648C149.835 245.021 150.331 245.549 150.693 246.232C151.056 246.904 151.237 247.688 151.237 248.584C151.237 249.469 151.056 250.259 150.693 250.952C150.331 251.645 149.829 252.184 149.189 252.568C148.56 252.952 147.856 253.144 147.077 253.144C146.32 253.144 145.653 252.979 145.077 252.648C144.512 252.317 144.085 251.896 143.797 251.384V253H142.341V241.16H143.797V245.864ZM149.749 248.584C149.749 247.923 149.616 247.347 149.349 246.856C149.083 246.365 148.72 245.992 148.261 245.736C147.813 245.48 147.317 245.352 146.773 245.352C146.24 245.352 145.744 245.485 145.285 245.752C144.837 246.008 144.475 246.387 144.197 246.888C143.931 247.379 143.797 247.949 143.797 248.6C143.797 249.261 143.931 249.843 144.197 250.344C144.475 250.835 144.837 251.213 145.285 251.48C145.744 251.736 146.24 251.864 146.773 251.864C147.317 251.864 147.813 251.736 148.261 251.48C148.72 251.213 149.083 250.835 149.349 250.344C149.616 249.843 149.749 249.256 149.749 248.584ZM153.938 242.808C153.661 242.808 153.426 242.712 153.234 242.52C153.053 242.328 152.962 242.093 152.962 241.816C152.962 241.539 153.053 241.304 153.234 241.112C153.426 240.92 153.661 240.824 153.938 240.824C154.215 240.824 154.445 240.92 154.626 241.112C154.818 241.304 154.914 241.539 154.914 241.816C154.914 242.093 154.818 242.328 154.626 242.52C154.445 242.712 154.215 242.808 153.938 242.808ZM154.658 254.904C154.658 255.683 154.461 256.253 154.066 256.616C153.671 256.979 153.095 257.16 152.338 257.16H151.49V255.928H152.098C152.503 255.928 152.786 255.848 152.946 255.688C153.117 255.528 153.202 255.256 153.202 254.872V244.232H154.658V254.904ZM165.123 248.28C165.123 248.557 165.107 248.851 165.075 249.16H158.067C158.12 250.024 158.413 250.701 158.947 251.192C159.491 251.672 160.147 251.912 160.915 251.912C161.544 251.912 162.067 251.768 162.483 251.48C162.909 251.181 163.208 250.787 163.379 250.296H164.947C164.712 251.139 164.243 251.827 163.539 252.36C162.835 252.883 161.96 253.144 160.915 253.144C160.083 253.144 159.336 252.957 158.675 252.584C158.024 252.211 157.512 251.683 157.139 251C156.765 250.307 156.579 249.507 156.579 248.6C156.579 247.693 156.76 246.899 157.123 246.216C157.485 245.533 157.992 245.011 158.643 244.648C159.304 244.275 160.061 244.088 160.915 244.088C161.747 244.088 162.483 244.269 163.123 244.632C163.763 244.995 164.253 245.496 164.595 246.136C164.947 246.765 165.123 247.48 165.123 248.28ZM163.619 247.976C163.619 247.421 163.496 246.947 163.251 246.552C163.005 246.147 162.669 245.843 162.243 245.64C161.827 245.427 161.363 245.32 160.851 245.32C160.115 245.32 159.485 245.555 158.963 246.024C158.451 246.493 158.157 247.144 158.083 247.976H163.619ZM168.821 245.432V250.6C168.821 251.027 168.911 251.331 169.093 251.512C169.274 251.683 169.589 251.768 170.036 251.768H171.109V253H169.797C168.986 253 168.378 252.813 167.973 252.44C167.567 252.067 167.365 251.453 167.365 250.6V245.432H166.229V244.232H167.365V242.024H168.821V244.232H171.109V245.432H168.821ZM173.625 242.808C173.347 242.808 173.113 242.712 172.921 242.52C172.729 242.328 172.633 242.093 172.633 241.816C172.633 241.539 172.729 241.304 172.921 241.112C173.113 240.92 173.347 240.824 173.625 240.824C173.891 240.824 174.115 240.92 174.297 241.112C174.489 241.304 174.585 241.539 174.585 241.816C174.585 242.093 174.489 242.328 174.297 242.52C174.115 242.712 173.891 242.808 173.625 242.808ZM174.329 244.232V253H172.873V244.232H174.329ZM180.074 251.656L182.794 244.232H184.346L180.906 253H179.21L175.77 244.232H177.338L180.074 251.656ZM189.603 253.144C188.782 253.144 188.035 252.957 187.363 252.584C186.702 252.211 186.179 251.683 185.795 251C185.422 250.307 185.235 249.507 185.235 248.6C185.235 247.704 185.427 246.915 185.811 246.232C186.206 245.539 186.739 245.011 187.411 244.648C188.083 244.275 188.835 244.088 189.667 244.088C190.499 244.088 191.251 244.275 191.923 244.648C192.595 245.011 193.123 245.533 193.507 246.216C193.902 246.899 194.099 247.693 194.099 248.6C194.099 249.507 193.896 250.307 193.491 251C193.096 251.683 192.558 252.211 191.875 252.584C191.192 252.957 190.435 253.144 189.603 253.144ZM189.603 251.864C190.126 251.864 190.616 251.741 191.075 251.496C191.534 251.251 191.902 250.883 192.179 250.392C192.467 249.901 192.611 249.304 192.611 248.6C192.611 247.896 192.472 247.299 192.195 246.808C191.918 246.317 191.555 245.955 191.107 245.72C190.659 245.475 190.174 245.352 189.651 245.352C189.118 245.352 188.627 245.475 188.179 245.72C187.742 245.955 187.39 246.317 187.123 246.808C186.856 247.299 186.723 247.896 186.723 248.6C186.723 249.315 186.851 249.917 187.107 250.408C187.374 250.899 187.726 251.267 188.163 251.512C188.6 251.747 189.08 251.864 189.603 251.864ZM196.477 253.096C196.2 253.096 195.965 253 195.773 252.808C195.581 252.616 195.485 252.381 195.485 252.104C195.485 251.827 195.581 251.592 195.773 251.4C195.965 251.208 196.2 251.112 196.477 251.112C196.744 251.112 196.968 251.208 197.149 251.4C197.341 251.592 197.437 251.827 197.437 252.104C197.437 252.381 197.341 252.616 197.149 252.808C196.968 253 196.744 253.096 196.477 253.096ZM199.837 253.096C199.559 253.096 199.325 253 199.133 252.808C198.941 252.616 198.845 252.381 198.845 252.104C198.845 251.827 198.941 251.592 199.133 251.4C199.325 251.208 199.559 251.112 199.837 251.112C200.103 251.112 200.327 251.208 200.509 251.4C200.701 251.592 200.797 251.827 200.797 252.104C200.797 252.381 200.701 252.616 200.509 252.808C200.327 253 200.103 253.096 199.837 253.096ZM203.196 253.096C202.919 253.096 202.684 253 202.492 252.808C202.3 252.616 202.204 252.381 202.204 252.104C202.204 251.827 202.3 251.592 202.492 251.4C202.684 251.208 202.919 251.112 203.196 251.112C203.463 251.112 203.687 251.208 203.868 251.4C204.06 251.592 204.156 251.827 204.156 252.104C204.156 252.381 204.06 252.616 203.868 252.808C203.687 253 203.463 253.096 203.196 253.096Z" fill="#C3C4CC"/>
<path d="M24 706.8C24 702.32 24 700.079 24.8719 698.368C25.6389 696.863 26.8628 695.639 28.3681 694.872C30.0794 694 32.3196 694 36.8 694H353.2C357.68 694 359.921 694 361.632 694.872C363.137 695.639 364.361 696.863 365.128 698.368C366 700.079 366 702.32 366 706.8V727.2C366 731.68 366 733.921 365.128 735.632C364.361 737.137 363.137 738.361 361.632 739.128C359.921 740 357.68 740 353.2 740H36.8C32.3196 740 30.0794 740 28.3681 739.128C26.8628 738.361 25.6389 737.137 24.8719 735.632C24 733.921 24 731.68 24 727.2V706.8Z" fill="#363C56"/>
<path d="M162.404 720.728H157.748L156.948 723H155.044L159.028 711.864H161.14L165.124 723H163.204L162.404 720.728ZM161.892 719.24L160.084 714.072L158.26 719.24H161.892ZM166.248 718.584C166.248 717.677 166.43 716.883 166.792 716.2C167.166 715.507 167.678 714.973 168.328 714.6C168.979 714.227 169.726 714.04 170.568 714.04C171.635 714.04 172.515 714.296 173.208 714.808C173.912 715.309 174.387 716.029 174.632 716.968H172.664C172.504 716.531 172.248 716.189 171.896 715.944C171.544 715.699 171.102 715.576 170.568 715.576C169.822 715.576 169.224 715.843 168.776 716.376C168.339 716.899 168.12 717.635 168.12 718.584C168.12 719.533 168.339 720.275 168.776 720.808C169.224 721.341 169.822 721.608 170.568 721.608C171.624 721.608 172.323 721.144 172.664 720.216H174.632C174.376 721.112 173.896 721.827 173.192 722.36C172.488 722.883 171.614 723.144 170.568 723.144C169.726 723.144 168.979 722.957 168.328 722.584C167.678 722.2 167.166 721.667 166.792 720.984C166.43 720.291 166.248 719.491 166.248 718.584ZM178.578 715.672V720.552C178.578 720.883 178.653 721.123 178.802 721.272C178.962 721.411 179.229 721.48 179.602 721.48H180.722V723H179.282C178.461 723 177.831 722.808 177.394 722.424C176.957 722.04 176.738 721.416 176.738 720.552V715.672H175.698V714.184H176.738V711.992H178.578V714.184H180.722V715.672H178.578ZM190.387 714.184V723H188.563V721.96C188.275 722.323 187.896 722.611 187.427 722.824C186.968 723.027 186.478 723.128 185.955 723.128C185.262 723.128 184.638 722.984 184.083 722.696C183.539 722.408 183.107 721.981 182.787 721.416C182.478 720.851 182.323 720.168 182.323 719.368V714.184H184.131V719.096C184.131 719.885 184.328 720.493 184.723 720.92C185.118 721.336 185.656 721.544 186.339 721.544C187.022 721.544 187.56 721.336 187.955 720.92C188.36 720.493 188.563 719.885 188.563 719.096V714.184H190.387ZM192.186 718.552C192.186 717.667 192.367 716.883 192.73 716.2C193.103 715.517 193.604 714.989 194.234 714.616C194.874 714.232 195.578 714.04 196.346 714.04C197.039 714.04 197.642 714.179 198.154 714.456C198.676 714.723 199.092 715.059 199.402 715.464V714.184H201.242V723H199.402V721.688C199.092 722.104 198.671 722.451 198.138 722.728C197.604 723.005 196.996 723.144 196.314 723.144C195.556 723.144 194.863 722.952 194.234 722.568C193.604 722.173 193.103 721.629 192.73 720.936C192.367 720.232 192.186 719.437 192.186 718.552ZM199.402 718.584C199.402 717.976 199.274 717.448 199.018 717C198.772 716.552 198.447 716.211 198.042 715.976C197.636 715.741 197.199 715.624 196.73 715.624C196.26 715.624 195.823 715.741 195.418 715.976C195.012 716.2 194.682 716.536 194.426 716.984C194.18 717.421 194.058 717.944 194.058 718.552C194.058 719.16 194.18 719.693 194.426 720.152C194.682 720.611 195.012 720.963 195.418 721.208C195.834 721.443 196.271 721.56 196.73 721.56C197.199 721.56 197.636 721.443 198.042 721.208C198.447 720.973 198.772 720.632 199.018 720.184C199.274 719.725 199.402 719.192 199.402 718.584ZM205.462 711.16V723H203.638V711.16H205.462ZM208.784 713.016C208.454 713.016 208.176 712.904 207.952 712.68C207.728 712.456 207.616 712.179 207.616 711.848C207.616 711.517 207.728 711.24 207.952 711.016C208.176 710.792 208.454 710.68 208.784 710.68C209.104 710.68 209.376 710.792 209.6 711.016C209.824 711.24 209.936 711.517 209.936 711.848C209.936 712.179 209.824 712.456 209.6 712.68C209.376 712.904 209.104 713.016 208.784 713.016ZM209.68 714.184V723H207.856V714.184H209.68ZM213.691 721.512H217.691V723H211.579V721.512L215.595 715.672H211.579V714.184H217.691V715.672L213.691 721.512ZM218.998 718.552C218.998 717.667 219.18 716.883 219.542 716.2C219.916 715.517 220.417 714.989 221.046 714.616C221.686 714.232 222.39 714.04 223.158 714.04C223.852 714.04 224.454 714.179 224.966 714.456C225.489 714.723 225.905 715.059 226.214 715.464V714.184H228.054V723H226.214V721.688C225.905 722.104 225.484 722.451 224.95 722.728C224.417 723.005 223.809 723.144 223.126 723.144C222.369 723.144 221.676 722.952 221.046 722.568C220.417 722.173 219.916 721.629 219.542 720.936C219.18 720.232 218.998 719.437 218.998 718.552ZM226.214 718.584C226.214 717.976 226.086 717.448 225.83 717C225.585 716.552 225.26 716.211 224.854 715.976C224.449 715.741 224.012 715.624 223.542 715.624C223.073 715.624 222.636 715.741 222.23 715.976C221.825 716.2 221.494 716.536 221.238 716.984C220.993 717.421 220.87 717.944 220.87 718.552C220.87 719.16 220.993 719.693 221.238 720.152C221.494 720.611 221.825 720.963 222.23 721.208C222.646 721.443 223.084 721.56 223.542 721.56C224.012 721.56 224.449 721.443 224.854 721.208C225.26 720.973 225.585 720.632 225.83 720.184C226.086 719.725 226.214 719.192 226.214 718.584ZM232.274 715.464C232.541 715.016 232.893 714.669 233.33 714.424C233.778 714.168 234.306 714.04 234.914 714.04V715.928H234.45C233.735 715.928 233.191 716.109 232.818 716.472C232.455 716.835 232.274 717.464 232.274 718.36V723H230.45V714.184H232.274V715.464Z" fill="white"/>
</svg>
